<svg width="218" height="233" viewBox="0 0 218 233" fill="none" xmlns="http://www.w3.org/2000/svg">
<path fill-rule="evenodd" clip-rule="evenodd" d="M116.401 231.756C165.305 223.524 202.855 175.068 202.855 116.522C202.855 57.9761 165.305 9.51973 116.401 1.2884V0.0556641H101.619C101.619 0.0556641 101.618 0.0556641 101.618 0.0556641C45.7072 0.0556641 0.382202 52.1995 0.382202 116.522C0.382202 180.845 45.7072 232.988 101.618 232.988C101.618 232.988 101.619 232.988 101.619 232.988H116.401V231.756Z" fill="url(#paint0_linear_3003_27103)"/>
<path fill-rule="evenodd" clip-rule="evenodd" d="M116.401 231.756C165.305 223.524 202.855 175.068 202.855 116.522C202.855 57.9761 165.305 9.51973 116.401 1.2884V0.0556641H101.619C101.619 0.0556641 101.618 0.0556641 101.618 0.0556641C45.7072 0.0556641 0.382202 52.1995 0.382202 116.522C0.382202 180.845 45.7072 232.988 101.618 232.988C101.618 232.988 101.619 232.988 101.619 232.988H116.401V231.756Z" fill="black" fill-opacity="0.66" style="mix-blend-mode:soft-light"/>
<ellipse cx="116.44" cy="116.522" rx="101.236" ry="116.466" fill="url(#paint1_linear_3003_27103)"/>
<ellipse cx="116.44" cy="116.522" rx="101.236" ry="116.466" fill="white" fill-opacity="0.2" style="mix-blend-mode:soft-light"/>
<ellipse cx="117.245" cy="116.439" rx="94.1427" ry="109.111" fill="url(#paint2_linear_3003_27103)"/>
<g clip-path="url(#clip0_3003_27103)">
<g filter="url(#filter0_d_3003_27103)">
<path fill-rule="evenodd" clip-rule="evenodd" d="M81.0167 42.6221V102.622H95.3575V63.8437C95.3575 62.7642 95.2153 61.571 94.9307 60.2642C94.7031 58.9573 94.3617 57.6505 93.9064 56.3437L93.6503 55.5766L93.4796 55.1505C93.3089 54.5255 93.2519 54.0426 93.3089 53.7016C93.4227 53.3039 93.7072 53.0482 94.1625 52.9346C94.6746 52.821 95.0161 52.9062 95.1868 53.1903C95.4145 53.4175 95.6136 53.8153 95.7844 54.3835L108.674 102.622H125.747L138.636 54.3835C138.807 53.8153 138.978 53.4175 139.148 53.1903C139.376 52.9062 139.746 52.821 140.258 52.9346C140.713 53.0482 140.969 53.3039 141.026 53.7016C141.14 54.0426 141.112 54.5539 140.941 55.2357L140.77 55.5766L140.6 56.088L140.429 56.5994C140.03 57.8494 139.689 59.1278 139.405 60.4346C139.177 61.6846 139.063 62.821 139.063 63.8437V102.622H153.404V42.6221H130.527L119.6 84.554L119.259 85.8324C118.861 87.6506 118.633 89.3551 118.576 90.946C118.576 91.4574 118.462 91.8835 118.235 92.2244C118.064 92.5085 117.722 92.6506 117.21 92.6506C116.698 92.6506 116.328 92.5085 116.101 92.2244C115.93 91.8835 115.844 91.4574 115.844 90.946C115.788 89.3551 115.56 87.6506 115.162 85.8324L114.82 84.554L103.894 42.6221H81.0167ZM159.598 114.946H75.1683C75.1683 120.399 79.8524 124.861 85.5774 124.861H149.189C154.914 124.861 159.598 120.399 159.598 114.946ZM153.526 127.781H81.2403C81.2403 130.81 83.8426 133.289 87.0232 133.289H147.743C150.924 133.289 153.526 130.81 153.526 127.781ZM89.7406 164.046V136.594C87.8901 136.594 86.3865 138.026 86.3865 139.789V160.851C86.3865 162.614 87.8901 164.046 89.7406 164.046ZM144.967 136.594V164.101C146.817 164.101 148.321 162.669 148.321 160.906V139.789C148.321 138.026 146.817 136.594 144.967 136.594ZM141.439 170.546C141.439 172.309 139.936 173.741 138.027 173.741C136.177 173.741 134.673 172.309 134.673 170.491V139.734C134.673 137.971 136.177 136.539 138.027 136.539C139.878 136.539 141.381 137.971 141.381 139.734V170.491L141.439 170.546ZM99.9762 170.546V139.789C99.9762 138.026 98.4727 136.594 96.6222 136.594C94.7717 136.594 93.2681 138.026 93.2681 139.789V170.546C93.2681 172.309 94.7717 173.741 96.6222 173.741C98.4727 173.741 99.9762 172.309 99.9762 170.546ZM131.204 139.844V183.766C131.204 185.584 129.7 187.016 127.792 187.016C125.883 187.016 124.38 185.584 124.38 183.766V139.844C124.38 138.026 125.883 136.594 127.792 136.594C129.7 136.594 131.204 138.026 131.204 139.844ZM110.27 183.766V139.844C110.27 137.558 108.766 136.594 106.858 136.594C105.007 136.594 103.446 138.026 103.446 139.844V183.766C103.446 185.584 104.949 187.016 106.858 187.016C108.766 187.016 110.27 185.584 110.27 183.766ZM120.679 139.899V195.72C120.679 197.482 119.175 198.915 117.325 198.915C115.474 198.915 113.971 197.482 113.971 195.72V139.789C113.971 138.082 115.359 136.704 117.093 136.594C119.06 136.429 120.737 137.971 120.737 139.899C120.737 141.827 120.679 139.899 120.679 139.899Z" fill="url(#paint3_linear_3003_27103)"/>
</g>
</g>
<g filter="url(#filter1_d_3003_27103)">
<path fill-rule="evenodd" clip-rule="evenodd" d="M63.912 62.744L63.9529 62.6866L55.2844 54.3047L53.404 56.9459L62.0725 65.3278L63.0133 64.0063L63.9129 62.7448L63.912 62.744ZM55.3157 58.6957L55.3177 58.6976H55.3144L55.3157 58.6957ZM53.7736 79.9979L44.1416 73.189L46.5321 68.598L56.5742 69.5924C56.5742 69.5924 56.5976 69.5885 56.6042 69.5924C56.6083 69.5947 56.6123 69.5942 56.6185 69.5935C56.6226 69.593 56.6276 69.5924 56.6342 69.5924C56.6876 69.5846 56.7376 69.5729 56.7843 69.5574C56.8309 69.538 56.861 69.5069 56.8743 69.4564C56.9243 69.3321 56.9143 69.2389 56.8443 69.1729C56.7709 69.1068 56.6609 69.0641 56.5075 69.0447C56.4886 69.0447 56.4653 69.0421 56.4375 69.0391L56.4175 69.0369C56.3971 69.0369 56.3788 69.0345 56.3625 69.0324C56.3495 69.0307 56.3379 69.0292 56.3275 69.0292C56.1108 68.9903 55.9107 68.9476 55.734 68.8932C55.554 68.8388 55.3906 68.7573 55.2339 68.6485L48.8592 64.1391L50.3862 61.2066L60.0183 68.0154L57.6278 72.6064L47.5856 71.6121C47.5223 71.6121 47.4623 71.6199 47.4056 71.6354C47.3456 71.6509 47.3089 71.6898 47.2889 71.748C47.2422 71.8607 47.2522 71.95 47.3156 72.0199C47.3789 72.0859 47.4823 72.1326 47.619 72.1559H47.6557C47.6723 72.1614 47.6923 72.163 47.7157 72.1648C47.7251 72.1656 47.7351 72.1664 47.7457 72.1675C47.7661 72.1675 47.7844 72.1699 47.8007 72.172C47.8137 72.1737 47.8253 72.1753 47.8357 72.1753C48.0524 72.2141 48.2525 72.2568 48.4292 72.3112C48.6059 72.3656 48.7759 72.4472 48.9293 72.5559L55.304 77.0654L53.777 79.9979H53.7736ZM52.6563 83.4196L52.68 83.3538L42.2911 78.2734L41.1509 81.435L51.5398 86.5154L51.5652 86.4449L51.5664 86.4455L52.6567 83.4198L52.6563 83.4196ZM46.712 106.81L46.7096 106.809L47.3755 103.473L40.2207 101.539C40.0239 101.485 39.8006 101.454 39.5505 101.442C39.3005 101.434 39.0437 101.446 38.787 101.477L38.637 101.492L38.5503 101.508C38.4303 101.512 38.3369 101.496 38.2736 101.461C38.2102 101.423 38.1769 101.353 38.1769 101.252C38.1769 101.135 38.2036 101.065 38.2602 101.034C38.3169 101.003 38.4003 100.984 38.5103 100.976L47.9923 100.382L48.8458 96.0974L40.5574 90.6985C40.4607 90.6364 40.3907 90.5742 40.354 90.5198C40.3173 90.4655 40.3173 90.3878 40.3607 90.2829C40.4007 90.1936 40.4574 90.147 40.5274 90.147C40.6007 90.147 40.6941 90.1819 40.8108 90.2518L40.8675 90.3062C40.8824 90.3159 40.8966 90.3266 40.9107 90.3372L40.9108 90.3373L40.9109 90.3374C40.925 90.348 40.9392 90.3587 40.9541 90.3684C40.9692 90.3781 40.9833 90.3888 40.9975 90.3994C41.0117 90.4101 41.0258 90.4208 41.0408 90.4305C41.2542 90.5781 41.4709 90.7102 41.6943 90.8267C41.9144 90.9432 42.1211 91.0287 42.3078 91.0792L49.4626 93.0134L50.1294 89.6731L39.1538 86.7057L38.0602 92.19L45.2784 96.8587L45.4984 96.9946C45.7918 97.1772 46.0919 97.3092 46.4053 97.3947C46.4987 97.418 46.5687 97.4607 46.6187 97.519C46.6654 97.5772 46.682 97.6588 46.6587 97.7676C46.6387 97.8763 46.5953 97.9424 46.5287 97.9695C46.462 97.9928 46.382 97.9967 46.2886 97.9695C45.9786 97.8841 45.6551 97.8491 45.3251 97.8608L45.075 97.8686L36.8299 98.358L35.7364 103.842L46.7096 106.809L46.7087 106.814L46.712 106.81ZM42.5813 119.293L42.5781 119.293L42.5814 119.285L42.5813 119.293ZM42.5447 122.68L42.5813 119.293C43.04 119.3 43.429 119.145 43.7517 118.823C44.0751 118.505 44.3051 117.938 44.4418 117.118L41.9613 117.083C41.7779 118.373 41.5212 119.386 41.1944 120.12C40.8677 120.854 40.471 121.371 40.0109 121.67C39.5508 121.969 38.9973 122.113 38.3572 122.105C37.7804 122.097 37.2569 121.899 36.7868 121.515C36.3167 121.13 35.9333 120.555 35.6366 119.794C35.3399 119.033 35.1565 118.097 35.0831 116.99L33.7695 116.97L33.7895 115.032L35.1032 115.052C35.1998 113.921 35.4299 112.989 35.79 112.255C36.15 111.521 36.5935 110.981 37.1202 110.632C37.647 110.286 38.2205 110.096 38.8406 110.068L38.8039 113.444C38.4839 113.44 38.2105 113.552 37.9838 113.785C37.757 114.018 37.587 114.45 37.4737 115.083L39.4574 115.11C39.6108 113.871 39.8308 112.845 40.1209 112.034C40.4109 111.226 40.811 110.608 41.3178 110.185C41.8246 109.762 42.4614 109.56 43.2282 109.567C43.8583 109.575 44.4318 109.785 44.9486 110.197C45.4687 110.608 45.8921 111.234 46.2255 112.08C46.5589 112.927 46.7556 113.968 46.8156 115.211L48.1293 115.23L48.1093 117.168L46.7956 117.149C46.6856 118.404 46.4289 119.448 46.0188 120.28C45.6087 121.115 45.1053 121.725 44.5018 122.113C43.9017 122.501 43.2482 122.692 42.5447 122.68ZM38.6306 118.528C38.5339 118.59 38.4205 118.617 38.2938 118.617L38.2905 118.613C38.1405 118.609 38.0071 118.559 37.8837 118.458C37.7637 118.357 37.6504 118.178 37.547 117.93C37.4537 117.704 37.3836 117.429 37.3403 117.099C37.297 116.768 37.307 116.582 37.3703 116.531C37.4236 116.481 37.4637 116.465 37.4903 116.477C37.517 116.489 37.557 116.535 37.6104 116.609C37.6204 116.625 37.627 116.636 37.6337 116.648C37.637 116.664 37.647 116.675 37.657 116.687C37.7437 116.788 37.8371 116.866 37.9438 116.924C38.0471 116.982 38.1871 117.021 38.3572 117.036H38.5172L39.1907 117.044C39.1207 117.514 39.034 117.864 38.9306 118.093C38.8273 118.322 38.7273 118.466 38.6306 118.528ZM44.6218 115.013C44.6585 115.386 44.6452 115.603 44.5818 115.665V115.661C44.5285 115.712 44.4818 115.724 44.4385 115.696C44.3951 115.669 44.3485 115.619 44.2951 115.545C44.2951 115.533 44.2951 115.526 44.2884 115.518L44.2651 115.491C44.1818 115.378 44.0951 115.3 44.0117 115.254C43.925 115.211 43.7983 115.18 43.6283 115.164H43.5016L42.2213 115.145C42.3014 114.574 42.3947 114.131 42.4981 113.817C42.6047 113.498 42.7248 113.284 42.8581 113.168C42.9915 113.051 43.1549 112.997 43.3482 112.997C43.5616 113.001 43.7617 113.094 43.945 113.277C44.1317 113.463 44.2918 113.735 44.4251 114.096C44.5185 114.333 44.5852 114.64 44.6218 115.013ZM39.5043 148.307L38.6841 144.625L41.9848 140.66C41.9848 140.66 41.9982 140.636 42.0048 140.632C42.0115 140.632 42.0182 140.621 42.0248 140.609C42.1782 140.461 42.4049 140.341 42.705 140.248C42.7983 140.221 42.8717 140.174 42.925 140.116C42.9784 140.054 42.9917 139.968 42.9684 139.863C42.945 139.755 42.8983 139.692 42.835 139.673C42.7717 139.654 42.685 139.654 42.5783 139.673C42.5583 139.681 42.5316 139.685 42.4983 139.688C42.4728 139.688 42.4492 139.695 42.4261 139.702L42.4256 139.702L42.4252 139.702C42.4184 139.704 42.4117 139.706 42.4049 139.708C42.2982 139.727 42.1882 139.743 42.0748 139.751C41.9615 139.758 41.8615 139.751 41.7781 139.723L37.2405 138.131L36.4203 134.449L44.4087 137.657L48.4995 136.418L49.2397 139.739L45.1488 140.978L39.5076 148.307H39.5043ZM42.9418 157.617L44.1321 160.756L54.4376 155.454L50.6101 145.355L48.3863 146.501L51.0235 153.461L42.9418 157.617ZM56.0441 158.565L56.4864 159.419L57.5344 161.439L57.5328 161.441L57.5644 161.502L47.919 168.283L47.888 168.223L47.8857 168.225L46.4287 165.417L46.4332 165.414L46.3987 165.347L56.0441 158.565ZM66.8708 175.714L66.8729 175.714V175.718L66.8708 175.714ZM66.8708 175.714L55.3138 179.978L52.5599 176.052L58.4478 163.704L60.4549 166.563L59.1282 169.157L62.4261 173.856L64.8692 172.859L66.8708 175.714ZM57.9439 171.473L56.0373 175.201C56.0373 175.201 56.0273 175.232 56.0173 175.244C56.0073 175.255 55.9973 175.271 55.9973 175.286C55.8539 175.535 55.7239 175.745 55.6072 175.923C55.4905 176.098 55.3571 176.257 55.2071 176.401L55.1704 176.436C55.0604 176.572 55.0571 176.716 55.1571 176.859C55.2504 176.995 55.3671 177.011 55.5038 176.914L55.5405 176.879C55.6905 176.735 55.8439 176.623 56.0006 176.537C56.1606 176.452 56.374 176.343 56.6441 176.215C56.6607 176.215 56.6741 176.215 56.6841 176.199C56.6974 176.188 56.7108 176.184 56.7241 176.184L60.2423 174.748L57.9439 171.473ZM62.8557 187.805C63.1825 188.896 63.8293 189.91 64.7961 190.846L69.5105 195.41L76.7087 185.315L71.9943 180.751C71.0441 179.831 70.0773 179.287 69.097 179.112C68.1168 178.938 67.1966 179.081 66.3298 179.536C65.4629 179.99 64.7028 180.678 64.0493 181.594C63.3892 182.523 62.9424 183.517 62.7124 184.577C62.4823 185.638 62.529 186.714 62.8557 187.805ZM69.0904 182.301C69.6205 182.363 70.1239 182.624 70.6007 183.086V183.09L72.8912 185.308L68.8003 191.044L66.5098 188.827C66.0364 188.364 65.723 187.836 65.573 187.238C65.4263 186.64 65.4196 186.042 65.563 185.443C65.703 184.845 65.9564 184.29 66.3165 183.785C66.6799 183.276 67.1 182.888 67.5767 182.616C68.0535 182.344 68.5603 182.239 69.0904 182.301Z" fill="url(#paint4_linear_3003_27103)"/>
</g>
<g filter="url(#filter2_d_3003_27103)">
<path fill-rule="evenodd" clip-rule="evenodd" d="M186.72 64.3651C186.634 63.2154 186.22 62.0463 185.477 60.8617L185.474 60.8655L181.863 55.0977L172.761 62.8348L176.375 68.6027C177.105 69.7679 177.925 70.5719 178.839 71.0186C179.752 71.4653 180.679 71.5895 181.613 71.3953C182.55 71.2011 183.43 70.7506 184.257 70.0476C185.093 69.3368 185.734 68.4978 186.18 67.5345C186.627 66.5713 186.807 65.5148 186.72 64.3651ZM179.516 67.9268C179.012 67.7132 178.579 67.317 178.215 66.7344V66.7383L176.462 63.9379L181.633 59.5411L183.386 62.3415C183.75 62.9241 183.943 63.5262 183.963 64.1476C183.98 64.7691 183.86 65.3478 183.596 65.8877C183.333 66.4276 182.973 66.8898 182.516 67.2782C182.059 67.6666 181.569 67.923 181.049 68.0511C180.529 68.1793 180.019 68.1366 179.516 67.9268ZM192.378 74.1025L180.276 74.926H180.273L181.613 78.2702L184.192 78.0033L186.397 83.5029L184.567 85.6344L185.907 88.9786L194.219 78.6974L192.378 74.1025ZM188.036 81.595L190.671 78.5265C190.671 78.5265 190.685 78.4993 190.701 78.4916C190.715 78.4838 190.725 78.4721 190.731 78.4566C190.922 78.2585 191.095 78.0876 191.245 77.9517C191.395 77.8157 191.558 77.6992 191.732 77.606L191.775 77.5827C191.912 77.4817 191.945 77.3458 191.878 77.1787C191.815 77.0195 191.705 76.969 191.552 77.0273L191.508 77.0506C191.335 77.1438 191.162 77.2137 190.988 77.2525C190.815 77.2914 190.585 77.3341 190.298 77.3807C190.285 77.3729 190.268 77.3768 190.255 77.3807C190.241 77.3885 190.225 77.3885 190.211 77.3807L186.5 77.7646L188.036 81.595ZM187.147 94.6574L186.297 91.3714L197.082 87.5767L197.933 90.8587L187.147 94.6535V94.6574ZM199.643 99.357L199.156 95.9739L188.044 98.1374L189.608 109.025L192.008 108.558L190.931 101.054L199.643 99.357ZM200.904 109.122L200.904 109.124L193.962 114.73L189.738 114.831L189.798 118.261L194.022 118.16L201.157 123.438L201.09 119.636L196.993 116.863C196.916 116.816 196.823 116.781 196.709 116.758L196.693 116.755C196.585 116.736 196.481 116.718 196.379 116.711C196.349 116.711 196.321 116.708 196.291 116.704L196.283 116.703C196.249 116.696 196.223 116.696 196.203 116.696H196.203C196.096 116.684 196.013 116.661 195.953 116.626C195.893 116.591 195.859 116.517 195.859 116.404C195.859 116.292 195.889 116.214 195.953 116.167C196.016 116.125 196.096 116.097 196.193 116.097C196.503 116.09 196.746 116.035 196.926 115.93C196.936 115.919 196.943 115.911 196.95 115.911C196.951 115.911 196.954 115.908 196.958 115.905C196.965 115.9 196.973 115.892 196.973 115.892L200.97 112.924L200.904 109.124L200.907 109.122H200.904ZM191.915 136.593L191.918 136.594H191.915L191.915 136.593ZM192.662 133.316L191.915 136.593C191.473 136.458 191.061 136.497 190.681 136.714C190.301 136.932 189.958 137.417 189.655 138.171L192.052 138.913C192.502 137.713 192.962 136.804 193.435 136.186C193.909 135.569 194.399 135.18 194.909 135.021C195.419 134.862 195.983 134.881 196.603 135.071C197.159 135.242 197.626 135.584 198.003 136.093C198.38 136.602 198.63 137.266 198.756 138.089C198.883 138.913 198.866 139.872 198.706 140.968L199.973 141.36L199.547 143.236L198.276 142.844C197.946 143.912 197.53 144.751 197.026 145.36C196.523 145.97 195.979 146.366 195.396 146.553C194.812 146.739 194.219 146.759 193.612 146.611L194.356 143.348C194.666 143.446 194.956 143.411 195.222 143.251C195.492 143.088 195.746 142.719 195.989 142.137L194.072 141.542C193.665 142.704 193.235 143.632 192.782 144.335C192.328 145.038 191.815 145.52 191.235 145.788C190.655 146.052 189.995 146.071 189.251 145.842C188.641 145.656 188.131 145.287 187.714 144.743C187.297 144.195 187.017 143.465 186.871 142.552C186.724 141.639 186.754 140.571 186.954 139.348L185.687 138.956L186.114 137.08L187.381 137.472C187.751 136.287 188.221 135.347 188.791 134.656C189.361 133.964 189.981 133.514 190.645 133.308C191.312 133.102 191.982 133.102 192.662 133.316ZM189.041 140.164C189.081 139.791 189.138 139.581 189.214 139.542V139.534C189.278 139.503 189.324 139.503 189.361 139.542C189.398 139.577 189.431 139.639 189.468 139.728L189.466 139.735C189.466 139.737 189.466 139.74 189.465 139.743C189.465 139.749 189.466 139.755 189.468 139.76C189.471 139.767 189.478 139.779 189.484 139.795C189.541 139.93 189.608 140.031 189.681 140.097C189.755 140.164 189.871 140.23 190.035 140.292L190.158 140.331L191.395 140.711C191.198 141.243 191.015 141.647 190.848 141.923C190.681 142.199 190.518 142.374 190.365 142.447C190.211 142.521 190.041 142.533 189.855 142.475C189.648 142.412 189.474 142.265 189.334 142.036C189.194 141.806 189.094 141.496 189.041 141.107C189.001 140.851 189.001 140.536 189.041 140.164ZM195.582 138.458C195.689 138.427 195.806 138.431 195.929 138.47V138.462C196.073 138.509 196.193 138.598 196.289 138.73C196.386 138.862 196.456 139.064 196.506 139.336C196.549 139.581 196.559 139.868 196.533 140.202C196.506 140.536 196.456 140.715 196.383 140.746C196.323 140.781 196.279 140.785 196.256 140.766C196.233 140.746 196.206 140.692 196.169 140.602C196.159 140.587 196.153 140.571 196.153 140.56C196.153 140.548 196.146 140.533 196.139 140.517L196.139 140.517C196.079 140.397 196.003 140.292 195.913 140.206C195.823 140.121 195.696 140.047 195.532 139.985L195.379 139.938L194.729 139.736C194.892 139.297 195.049 138.983 195.199 138.792C195.349 138.602 195.476 138.489 195.582 138.458ZM185.274 147.509L195.276 153.548L193.052 158.547L184.96 156.644L184.717 156.582C184.393 156.5 184.09 156.372 183.807 156.201C183.72 156.151 183.643 156.127 183.573 156.135C183.503 156.143 183.447 156.197 183.403 156.294C183.36 156.395 183.353 156.477 183.39 156.547C183.423 156.617 183.483 156.679 183.57 156.729C183.853 156.9 184.12 157.118 184.363 157.378L184.547 157.572L190.548 164.179L188.324 169.178L178.322 163.138L179.676 160.093L186.197 164.032C186.367 164.136 186.547 164.276 186.741 164.455C186.931 164.634 187.114 164.824 187.287 165.026C187.311 165.053 187.334 165.08 187.357 165.111L187.358 165.112C187.381 165.139 187.404 165.166 187.427 165.197L187.471 165.263C187.571 165.364 187.654 165.426 187.724 165.445C187.794 165.465 187.858 165.438 187.914 165.36C187.978 165.271 187.998 165.197 187.971 165.131C187.944 165.065 187.891 164.987 187.811 164.898L180.926 157.277L182.663 153.37L191.978 155.529C192.088 155.553 192.172 155.56 192.232 155.545C192.292 155.533 192.335 155.471 192.358 155.358C192.378 155.257 192.358 155.184 192.308 155.129C192.255 155.075 192.168 155.032 192.048 155.005L191.962 154.997L191.812 154.97C191.555 154.927 191.305 154.865 191.065 154.783C190.825 154.702 190.615 154.605 190.435 154.496L183.913 150.558L185.267 147.512L185.274 147.509ZM174.547 168.469L174.508 168.529L183.5 176.433L183.857 175.882L185.237 173.753L185.236 173.753L185.274 173.695L176.282 165.791L176.244 165.849H176.242L174.545 168.467L174.547 168.469ZM172.744 171.465L180.649 180.818L177.365 184.586L167.84 180.756C167.84 180.756 167.817 180.756 167.813 180.748C167.81 180.744 167.8 180.74 167.787 180.74C167.733 180.733 167.683 180.729 167.633 180.733C167.583 180.733 167.547 180.76 167.527 180.802C167.45 180.907 167.44 181.001 167.497 181.086C167.553 181.171 167.653 181.245 167.793 181.307C167.817 181.315 167.843 181.327 167.877 181.342C167.892 181.35 167.907 181.355 167.92 181.36C167.936 181.366 167.949 181.371 167.96 181.377C168.163 181.474 168.347 181.575 168.507 181.68C168.667 181.785 168.814 181.909 168.94 182.061L174.171 188.252L172.074 190.66L164.169 181.307L167.453 177.54L176.979 181.37C177.039 181.389 177.099 181.397 177.159 181.397C177.219 181.397 177.265 181.37 177.295 181.319C177.365 181.222 177.375 181.133 177.325 181.047C177.275 180.962 177.189 180.888 177.062 180.826L177.029 180.81C177.005 180.802 176.979 180.791 176.945 180.775C176.912 180.764 176.882 180.752 176.862 180.74C176.659 180.643 176.475 180.542 176.315 180.437C176.155 180.332 176.008 180.208 175.882 180.057L170.651 173.865L172.748 171.457L172.744 171.465ZM161.612 183.32L159.235 185.343L165.879 195.943L168.257 193.919L161.612 183.32Z" fill="url(#paint5_linear_3003_27103)"/>
</g>
<defs>
<filter id="filter0_d_3003_27103" x="73.3765" y="42.6221" width="86.2212" height="158.085" filterUnits="userSpaceOnUse" color-interpolation-filters="sRGB">
<feFlood flood-opacity="0" result="BackgroundImageFix"/>
<feColorMatrix in="SourceAlpha" type="matrix" values="0 0 0 0 0 0 0 0 0 0 0 0 0 0 0 0 0 0 127 0" result="hardAlpha"/>
<feOffset dx="-1.79179" dy="1.79179"/>
<feComposite in2="hardAlpha" operator="out"/>
<feColorMatrix type="matrix" values="0 0 0 0 0 0 0 0 0 0 0 0 0 0 0 0 0 0 0.25 0"/>
<feBlend mode="normal" in2="BackgroundImageFix" result="effect1_dropShadow_3003_27103"/>
<feBlend mode="normal" in="SourceGraphic" in2="effect1_dropShadow_3003_27103" result="shape"/>
</filter>
<filter id="filter1_d_3003_27103" x="31.6194" y="54.3047" width="45.0893" height="143.256" filterUnits="userSpaceOnUse" color-interpolation-filters="sRGB">
<feFlood flood-opacity="0" result="BackgroundImageFix"/>
<feColorMatrix in="SourceAlpha" type="matrix" values="0 0 0 0 0 0 0 0 0 0 0 0 0 0 0 0 0 0 127 0" result="hardAlpha"/>
<feOffset dx="-1.07507" dy="1.07507"/>
<feGaussianBlur stdDeviation="0.537537"/>
<feComposite in2="hardAlpha" operator="out"/>
<feColorMatrix type="matrix" values="0 0 0 0 0 0 0 0 0 0 0 0 0 0 0 0 0 0 0.25 0"/>
<feBlend mode="normal" in2="BackgroundImageFix" result="effect1_dropShadow_3003_27103"/>
<feBlend mode="normal" in="SourceGraphic" in2="effect1_dropShadow_3003_27103" result="shape"/>
</filter>
<filter id="filter2_d_3003_27103" x="157.084" y="55.0977" width="44.0726" height="142.995" filterUnits="userSpaceOnUse" color-interpolation-filters="sRGB">
<feFlood flood-opacity="0" result="BackgroundImageFix"/>
<feColorMatrix in="SourceAlpha" type="matrix" values="0 0 0 0 0 0 0 0 0 0 0 0 0 0 0 0 0 0 127 0" result="hardAlpha"/>
<feOffset dx="-1.07507" dy="1.07507"/>
<feGaussianBlur stdDeviation="0.537537"/>
<feComposite in2="hardAlpha" operator="out"/>
<feColorMatrix type="matrix" values="0 0 0 0 0 0 0 0 0 0 0 0 0 0 0 0 0 0 0.25 0"/>
<feBlend mode="normal" in2="BackgroundImageFix" result="effect1_dropShadow_3003_27103"/>
<feBlend mode="normal" in="SourceGraphic" in2="effect1_dropShadow_3003_27103" result="shape"/>
</filter>
<linearGradient id="paint0_linear_3003_27103" x1="43.1935" y1="0.000808761" x2="74.5929" y2="228.621" gradientUnits="userSpaceOnUse">
<stop stop-color="#CBA23E"/>
<stop offset="0.155" stop-color="#A79065"/>
<stop offset="0.275" stop-color="#D5B76C"/>
<stop offset="0.485" stop-color="#A1832A"/>
<stop offset="0.66" stop-color="#C8A758"/>
<stop offset="0.79" stop-color="#896E39"/>
<stop offset="0.95" stop-color="#C59C38"/>
</linearGradient>
<linearGradient id="paint1_linear_3003_27103" x1="58.0149" y1="20.3359" x2="206.463" y2="180.731" gradientUnits="userSpaceOnUse">
<stop stop-color="#CBA23E"/>
<stop offset="0.155" stop-color="#FDF4E3"/>
<stop offset="0.285" stop-color="#CBA23E"/>
<stop offset="0.415" stop-color="#A1832A"/>
<stop offset="0.585" stop-color="#CBA23E"/>
<stop offset="0.755" stop-color="#FDF4E3"/>
<stop offset="0.95" stop-color="#CBA23E"/>
</linearGradient>
<linearGradient id="paint2_linear_3003_27103" x1="211.31" y1="220.39" x2="-2.96137" y2="43.6874" gradientUnits="userSpaceOnUse">
<stop stop-color="#0D4BEF"/>
<stop offset="1" stop-color="#7D0BF4"/>
</linearGradient>
<linearGradient id="paint3_linear_3003_27103" x1="93.0203" y1="56.2296" x2="204.87" y2="125.672" gradientUnits="userSpaceOnUse">
<stop stop-color="#FFDC86"/>
<stop offset="0.155" stop-color="white"/>
<stop offset="0.39" stop-color="#F5CF5E"/>
<stop offset="0.51" stop-color="#F9D57C"/>
<stop offset="0.755" stop-color="#FDF4E3"/>
<stop offset="0.95" stop-color="#FED87C"/>
</linearGradient>
<linearGradient id="paint4_linear_3003_27103" x1="67.3203" y1="189.736" x2="-9.9877" y2="146.165" gradientUnits="userSpaceOnUse">
<stop stop-color="#EAD5A1"/>
<stop offset="1" stop-color="#F9EFD9"/>
</linearGradient>
<linearGradient id="paint5_linear_3003_27103" x1="180.196" y1="55.0977" x2="180.196" y2="195.943" gradientUnits="userSpaceOnUse">
<stop stop-color="#F9EFDB"/>
<stop offset="1" stop-color="#EDD9AA"/>
</linearGradient>
<clipPath id="clip0_3003_27103">
<rect width="85.0487" height="162.571" fill="white" transform="translate(74.8031 36.6318)"/>
</clipPath>
</defs>
</svg>
