<svg width="250" height="250" viewBox="0 0 250 250" fill="none" xmlns="http://www.w3.org/2000/svg">
<circle cx="125" cy="125" r="125" fill="url(#paint0_linear_3301_10909)"/>
<circle cx="125" cy="125" r="125" fill="white" fill-opacity="0.2" style="mix-blend-mode:soft-light"/>
<circle cx="125" cy="125" r="113.235" fill="url(#paint1_linear_3301_10909)"/>
<path fill-rule="evenodd" clip-rule="evenodd" d="M128.035 30L127.228 40.1165V40.1261L129.64 40.3183L129.914 36.8677L131.178 36.9686C131.693 37.0071 132.091 37.0839 132.365 37.1993C132.639 37.3098 132.841 37.478 132.961 37.6943C133.086 37.9106 133.168 38.2085 133.216 38.5882L133.456 40.6163L136.186 40.8326L135.542 38.0596C135.489 37.8433 135.412 37.651 135.307 37.478C135.201 37.305 135.023 37.1416 134.768 36.9878C134.518 36.834 134.172 36.7139 133.735 36.6322C133.562 36.5985 133.485 36.5072 133.495 36.3534C133.504 36.1997 133.596 36.118 133.759 36.1131C134.244 36.0843 134.672 35.9546 135.042 35.7239C135.412 35.4932 135.705 35.2096 135.922 34.8636C136.138 34.5176 136.263 34.1619 136.292 33.7871C136.369 32.8403 136.109 32.0569 135.518 31.4466C134.927 30.8314 133.956 30.4758 132.606 30.3653L128.035 30ZM132.899 34.9645C132.615 35.0558 132.303 35.0847 131.957 35.0558V35.051L130.073 34.9021L130.284 32.2588L132.312 32.4222C132.865 32.4654 133.269 32.6048 133.528 32.8451C133.788 33.0854 133.894 33.4266 133.86 33.8784C133.841 34.1475 133.745 34.3734 133.576 34.556C133.408 34.7387 133.182 34.878 132.899 34.9645ZM115.742 40.4817L115.743 40.4767L118.274 40.3712L118.903 38.1593L122.993 37.9887L123.806 40.1453L126.339 40.0396L122.23 30.0529L119.005 30.1874L115.743 40.4767L115.737 40.4769L115.742 40.4817ZM121.143 33.0854L122.263 36.0549L119.468 36.1715L120.336 33.1142C120.351 33.1046 120.351 33.0902 120.351 33.071C120.351 33.0518 120.355 33.0373 120.365 33.0277C120.408 32.8643 120.437 32.6913 120.447 32.5135C120.461 32.3357 120.461 32.1242 120.461 31.8839V31.8407C120.475 31.6965 120.548 31.6196 120.682 31.6148C120.826 31.61 120.908 31.6773 120.937 31.8214V31.8647C120.956 32.0665 120.975 32.2684 120.999 32.4702C121.023 32.6721 121.062 32.8499 121.115 32.9989C121.124 33.0085 121.129 33.0229 121.129 33.0421C121.129 33.0614 121.143 33.0854 121.143 33.0854ZM113.045 30.6296L110.657 31.0381L111.335 35.0174L107.24 35.7143L106.562 31.7349L104.174 32.1434L105.88 42.1494L108.268 41.7409L107.591 37.7616L111.685 37.0647L112.363 41.044L114.752 40.6355L113.045 30.6296ZM98.6373 37.5069C99.56 37.3435 100.353 37.281 101.016 37.329C101.679 37.3771 102.237 37.5741 102.689 37.9202C103.145 38.2662 103.477 38.7949 103.688 39.5013C103.866 40.0925 103.866 40.674 103.688 41.2459C103.511 41.8178 103.155 42.3416 102.607 42.8174C102.059 43.2932 101.338 43.6633 100.435 43.9324C99.512 44.2063 98.6902 44.2736 97.9597 44.1294C97.2291 43.9853 96.6284 43.6825 96.1526 43.2259C95.6768 42.7694 95.3452 42.2023 95.1434 41.539L97.4358 40.8566C97.5271 41.169 97.6761 41.4429 97.8731 41.6736C98.0702 41.9043 98.3393 42.0629 98.6757 42.1398C99.0122 42.2215 99.4062 42.1927 99.8676 42.0533C100.31 41.9235 100.656 41.7553 100.901 41.5583C101.146 41.3612 101.305 41.1546 101.377 40.9431C101.449 40.7316 101.458 40.5298 101.396 40.3328C101.333 40.1309 101.228 39.9771 101.069 39.8714C100.91 39.7657 100.685 39.708 100.382 39.684C100.079 39.6647 99.6802 39.6936 99.1804 39.7705C98.1567 39.9339 97.3253 39.9675 96.6813 39.8714C96.0421 39.7705 95.5423 39.5542 95.1866 39.2178C94.831 38.8814 94.5619 38.4152 94.384 37.8193C94.2206 37.2666 94.2254 36.7283 94.3985 36.1997C94.5715 35.671 94.9127 35.1952 95.4221 34.7675C95.9315 34.3398 96.5948 34.0033 97.4166 33.7582C98.2528 33.5083 98.9977 33.4459 99.6465 33.5756C100.295 33.7006 100.834 33.9649 101.252 34.3686C101.675 34.7675 101.982 35.2577 102.184 35.8296L99.9445 36.4976C99.8772 36.2669 99.7571 36.0699 99.5937 35.9017C99.4303 35.7335 99.2092 35.6229 98.9305 35.5653C98.6517 35.5076 98.3249 35.5364 97.9452 35.647C97.5656 35.7575 97.2772 35.8969 97.0754 36.0555C96.8735 36.2141 96.7438 36.3823 96.6813 36.5553C96.6236 36.7283 96.6188 36.8917 96.662 37.0503C96.7053 37.1993 96.787 37.3194 96.8975 37.4156C97.0129 37.5117 97.2051 37.5741 97.4791 37.5982C97.753 37.6222 98.1327 37.5934 98.6181 37.5069H98.6373ZM83.2718 50.8318L83.2727 50.8337H83.2679L83.2718 50.8318ZM85.4402 49.7572L83.2718 50.8318L78.7696 41.7361L82.8787 39.7032C84.0946 39.1024 85.1134 38.9102 85.9352 39.1313C86.757 39.3523 87.3818 39.8858 87.7999 40.7413C87.9681 41.0777 88.045 41.4477 88.0354 41.8562C88.0258 42.2647 87.9249 42.6588 87.723 43.0481C87.5212 43.4374 87.2232 43.769 86.8243 44.0429C86.6849 44.1342 86.6513 44.2448 86.7186 44.3841C86.7859 44.5235 86.9012 44.562 87.0646 44.4995C87.4827 44.3457 87.8384 44.2736 88.1363 44.2736C88.4343 44.2736 88.6698 44.3265 88.8524 44.4178C89.0351 44.5091 89.1985 44.6389 89.3522 44.7975L91.3323 46.84L88.8765 48.0559L87.6269 46.4411C87.3914 46.1383 87.1655 45.9269 86.9493 45.8019C86.733 45.6769 86.4783 45.6385 86.1803 45.6818C85.8872 45.725 85.5075 45.8644 85.0413 46.0951L83.9023 46.6574L85.4402 49.7572ZM85.4883 43.4999C85.2912 43.7209 85.0413 43.9084 84.7289 44.0622V44.067L83.0372 44.9032L81.8598 42.5243L83.6812 41.6207C84.1763 41.3708 84.5992 41.2843 84.9404 41.3564C85.2816 41.4285 85.5508 41.6688 85.7526 42.0725C85.8727 42.3128 85.9064 42.5579 85.8583 42.803C85.8103 43.0481 85.6853 43.2788 85.4883 43.4999ZM74.0886 44.586L74.0941 44.5823L77.5441 49.8005C77.794 50.1753 77.9141 50.5502 77.9093 50.925C77.9045 51.2999 77.8084 51.6363 77.621 51.9391C77.4335 52.2419 77.2076 52.4822 76.9433 52.6552C76.6646 52.8426 76.3522 52.9628 76.0062 53.0156C75.6649 53.0733 75.3189 53.03 74.9777 52.8859C74.6365 52.7417 74.3385 52.4774 74.0838 52.0929L70.6283 46.8736L68.6098 48.2097L71.9692 53.2848C72.4786 54.0585 73.0697 54.6016 73.7474 54.9284C74.425 55.2552 75.1363 55.3657 75.8812 55.2648C76.6261 55.1639 77.3614 54.8707 78.0919 54.3901C78.8128 53.9095 79.3655 53.3472 79.75 52.7032C80.1345 52.0592 80.3123 51.3624 80.2786 50.6079C80.245 49.8533 79.9759 49.094 79.4664 48.325L76.1071 43.25L74.0941 44.5823L74.0934 44.5812L74.0886 44.586ZM65.0823 51.6171C64.1836 51.7757 63.3233 52.213 62.4919 52.9291C61.6604 53.6452 61.1029 54.4382 60.8146 55.3032C60.5262 56.1683 60.4974 57.0382 60.7233 57.908C60.9492 58.7827 61.3865 59.5901 62.0353 60.3399C62.6841 61.0896 63.4194 61.6375 64.2508 61.9883C65.0823 62.3343 65.9425 62.4304 66.8412 62.2718C67.7399 62.1132 68.6002 61.6759 69.4316 60.9598C70.2631 60.2389 70.8205 59.4508 71.1089 58.5857C71.3973 57.7206 71.4261 56.8507 71.2002 55.9809C70.9743 55.111 70.537 54.2988 69.8882 53.5491C69.2394 52.7993 68.5041 52.2515 67.6727 51.9006C66.8412 51.5546 65.981 51.4585 65.0823 51.6171ZM68.9222 58.0859C68.7924 58.5761 68.5089 59.0086 68.0716 59.3835C67.6342 59.7583 67.1632 59.9794 66.6634 60.0371C66.1588 60.0996 65.6686 60.013 65.1832 59.7824C64.6978 59.5517 64.2556 59.2056 63.8616 58.7491C63.4627 58.2925 63.1887 57.8071 63.0301 57.2929C62.8715 56.7835 62.8619 56.2836 62.9917 55.7934C63.1214 55.308 63.405 54.8755 63.8423 54.4958C64.2797 54.121 64.7507 53.8999 65.2505 53.8422C65.7551 53.7846 66.2453 53.8663 66.7307 54.0969C67.2161 54.3276 67.6582 54.6737 68.0523 55.1302C68.4512 55.5868 68.7252 56.0722 68.8838 56.5864C69.0424 57.0958 69.052 57.5957 68.9222 58.0859ZM51.2818 64.5523L51.2796 64.5547L51.27 64.5498L51.2818 64.5523ZM58.4789 66.0637L51.2818 64.5523L53.0482 62.6179L56.9362 63.5166C56.9362 63.5166 56.9554 63.5262 56.9651 63.5262C57.1044 63.5598 57.2822 63.6704 57.5081 63.8482C57.5706 63.9059 57.6379 63.9443 57.7004 63.9587C57.7676 63.9731 57.8253 63.9491 57.8878 63.8818C57.9455 63.8193 57.9647 63.7521 57.9455 63.6896C57.9262 63.6271 57.883 63.5646 57.8205 63.507C57.7773 63.4541 57.734 63.406 57.6859 63.3532C57.6379 63.3051 57.5946 63.2522 57.5514 63.1994C57.5225 63.1609 57.4985 63.1225 57.4841 63.0792L57.4749 63.0543C57.4634 63.0227 57.4512 62.9894 57.436 62.9591L56.1961 59.1672L57.9647 57.2304L60.1177 64.2759L62.9244 66.8423L61.2904 68.6301L58.4789 66.0637ZM146.447 34.6041L141.352 33.6044L140.963 35.5845L145.149 36.4063L144.769 38.3287L140.583 37.5069L140.194 39.4869L145.288 40.4865L144.89 42.5243L137.421 41.0584L139.377 31.1005L146.846 32.5664L146.447 34.6041ZM153.693 34.4615L153.689 34.4599H153.694L153.693 34.4615ZM153.693 34.4615L161.903 37.5261L161.177 39.4725L158.207 38.3623L155.386 45.9269L153.117 45.081L155.938 37.5165L152.968 36.4063L153.693 34.4615ZM168.136 40.3183C169.112 40.8182 169.837 41.4573 170.323 42.2311C170.803 43.0049 171.039 43.8411 171.024 44.7398C171.01 45.6385 170.774 46.5324 170.323 47.4119C169.871 48.2914 169.28 48.9979 168.554 49.5361C167.828 50.0696 167.011 50.3675 166.103 50.4204C165.195 50.4781 164.253 50.2522 163.277 49.7524C162.302 49.2526 161.576 48.6134 161.09 47.8396C160.605 47.0659 160.374 46.2296 160.389 45.3309C160.403 44.4322 160.639 43.5383 161.09 42.6588C161.542 41.7793 162.133 41.0729 162.859 40.5346C163.585 40.0011 164.402 39.7032 165.31 39.6503C166.218 39.5974 167.16 39.8185 168.136 40.3183ZM164.229 47.9069C164.743 48.1712 165.248 48.2722 165.752 48.2145C166.252 48.152 166.713 47.955 167.131 47.6186C167.55 47.2821 167.896 46.8448 168.174 46.3065C168.453 45.7683 168.607 45.23 168.641 44.6965C168.674 44.1631 168.568 43.6729 168.328 43.2307C168.088 42.7886 167.708 42.433 167.199 42.1686C166.689 41.9043 166.18 41.8034 165.675 41.861C165.175 41.9235 164.714 42.1206 164.296 42.457C163.878 42.7934 163.532 43.2307 163.253 43.769C162.974 44.3073 162.821 44.8455 162.787 45.379C162.753 45.9124 162.859 46.4027 163.099 46.8448C163.34 47.2869 163.719 47.6426 164.229 47.9069ZM180.132 48.7672C179.766 47.9502 179.113 47.2245 178.18 46.5805L178.176 46.5853L174.768 44.24L169.011 52.5975L172.418 54.9428C173.336 55.5724 174.244 55.9184 175.133 55.9713C176.027 56.0241 176.844 55.8415 177.589 55.4186C178.334 55.0005 178.968 54.4093 179.492 53.65C180.021 52.8811 180.348 52.0785 180.482 51.2422C180.617 50.406 180.497 49.5794 180.132 48.7672ZM175.052 53.7269C174.566 53.7269 174.095 53.5731 173.634 53.2559V53.2607L172.187 52.2611L175.59 47.3206L177.037 48.3202C177.493 48.6374 177.805 49.0219 177.978 49.4785C178.147 49.935 178.185 50.4108 178.089 50.8962C177.993 51.3816 177.791 51.843 177.493 52.2803C177.195 52.7128 176.835 53.0637 176.412 53.328C175.994 53.5875 175.537 53.7269 175.052 53.7269ZM176.7 57.86L186.187 52.6936L188.609 54.8322L184.659 64.8815L182.756 63.2042L183.662 61.0876L180.601 58.3858L178.613 59.5469L176.71 57.8648L176.7 57.86ZM185.726 56.2692L184.475 59.1893L182.384 57.3441L185.13 55.7406C185.144 55.7406 185.154 55.731 185.168 55.7165C185.178 55.7021 185.192 55.6925 185.207 55.6925C185.351 55.6012 185.485 55.4955 185.62 55.3753C185.75 55.2552 185.899 55.1062 186.067 54.9332L186.096 54.8995C186.206 54.8034 186.312 54.7986 186.413 54.8899C186.519 54.9812 186.533 55.0918 186.451 55.2119L186.422 55.2456C186.293 55.3993 186.168 55.5627 186.048 55.7213C185.923 55.8799 185.831 56.0337 185.764 56.1827C185.764 56.1971 185.759 56.2115 185.745 56.226C185.73 56.2404 185.726 56.2692 185.726 56.2692ZM191.309 57.2392L191.305 57.2352H191.31L191.309 57.2392ZM191.309 57.2392L189.157 64.2807L186.35 66.8471L187.984 68.6349L190.791 66.0685L198 64.5547L196.231 62.6179L192.343 63.5166L192.218 63.5502C192.175 63.5646 192.137 63.5839 192.094 63.6079C192.036 63.6463 191.983 63.6848 191.93 63.728C191.877 63.7713 191.824 63.8097 191.767 63.8482C191.704 63.9107 191.642 63.9491 191.574 63.9587C191.507 63.9683 191.445 63.9443 191.387 63.8818C191.329 63.8194 191.31 63.7521 191.329 63.6896C191.349 63.6271 191.392 63.5646 191.454 63.507C191.656 63.3003 191.776 63.1273 191.824 62.9927C191.824 62.9783 191.834 62.9639 191.834 62.9639L193.074 59.172L191.309 57.2392Z" fill="url(#paint2_linear_3301_10909)"/>
<path fill-rule="evenodd" clip-rule="evenodd" d="M126.008 189.673H125.948H123.525H123.464V179.012H123.525H125.948H126.008V189.673ZM108.866 189.673V179.012H112.924L114.863 186.462L114.923 186.693C114.996 187.014 115.032 187.317 115.044 187.601C115.044 187.692 115.063 187.765 115.099 187.819C115.135 187.874 115.196 187.904 115.287 187.904C115.378 187.904 115.438 187.874 115.474 187.819C115.511 187.765 115.529 187.692 115.529 187.601C115.541 187.317 115.577 187.014 115.65 186.693L115.711 186.462L117.649 179.012H121.708V189.673H119.163V182.779C119.163 182.598 119.188 182.392 119.23 182.168C119.272 181.944 119.333 181.713 119.406 181.495C119.412 181.48 119.416 181.465 119.421 181.45C119.425 181.435 119.43 181.42 119.436 181.404C119.442 181.389 119.447 181.374 119.451 181.359L119.451 181.359C119.456 181.344 119.46 181.329 119.466 181.314L119.497 181.253C119.527 181.132 119.533 181.041 119.521 180.974C119.509 180.908 119.46 180.865 119.375 180.847C119.285 180.829 119.224 180.841 119.188 180.884C119.151 180.926 119.121 181.005 119.091 181.102L116.801 189.673H113.772L111.489 181.102C111.458 180.999 111.428 180.926 111.392 180.884C111.355 180.841 111.295 180.823 111.204 180.847C111.125 180.865 111.077 180.908 111.059 180.974C111.04 181.041 111.052 181.126 111.083 181.241L111.113 181.314L111.162 181.447C111.24 181.677 111.307 181.913 111.349 182.143C111.392 182.374 111.416 182.586 111.416 182.779V189.673H108.872H108.866ZM127.765 179.012V189.673L127.777 189.667H130.321V182.761C130.321 182.586 130.297 182.416 130.249 182.252C130.194 182.083 130.127 181.907 130.049 181.713C130.046 181.705 130.04 181.695 130.034 181.683C130.027 181.671 130.019 181.656 130.012 181.641L129.976 181.568L129.958 181.538C129.903 181.417 129.885 181.314 129.903 181.241C129.921 181.162 129.976 181.114 130.079 181.095C130.127 181.089 130.17 181.102 130.212 181.144C130.255 181.186 130.291 181.235 130.321 181.283L133.835 189.673H137.711V179.012H135.167V185.917C135.167 186.093 135.191 186.256 135.24 186.426C135.288 186.596 135.355 186.771 135.434 186.965C135.437 186.974 135.442 186.984 135.449 186.995C135.456 187.008 135.464 187.022 135.47 187.038C135.474 187.046 135.478 187.055 135.482 187.063L135.482 187.063C135.49 187.081 135.498 187.098 135.506 187.111C135.567 187.244 135.591 187.353 135.579 187.438C135.567 187.522 135.506 187.571 135.397 187.583C135.355 187.595 135.319 187.583 135.282 187.553C135.246 187.522 135.216 187.492 135.185 187.45C135.167 187.438 135.167 187.426 135.167 187.426C135.167 187.419 135.155 187.401 135.155 187.401L131.642 179.012H127.765ZM142 189.673H141.939H139.516H139.456V179.012H139.516H141.939H142V189.673ZM139.193 194.752H111.672C111.672 196.601 113.2 198.114 115.064 198.114H135.802C137.666 198.114 139.193 196.601 139.193 194.752ZM137.214 199.104H113.652C113.652 200.129 114.501 200.973 115.537 200.973H135.329C136.364 200.973 137.214 200.134 137.214 199.104ZM116.426 211.389V202.088C115.823 202.088 115.331 202.576 115.331 203.169V210.309C115.331 210.907 115.823 211.389 116.426 211.389ZM134.43 202.093V211.409C135.033 211.409 135.525 210.922 135.525 210.329V203.174C135.525 202.576 135.033 202.093 134.43 202.093ZM133.279 213.595C133.279 214.193 132.787 214.676 132.169 214.676C131.551 214.676 131.073 214.188 131.073 213.575V203.154C131.073 202.556 131.566 202.073 132.169 202.073C132.772 202.073 133.264 202.561 133.264 203.154V213.575L133.284 213.595H133.279ZM119.762 213.595V203.174C119.762 202.576 119.27 202.093 118.667 202.093C118.064 202.093 117.572 202.581 117.572 203.174V213.595C117.572 214.193 118.064 214.676 118.667 214.676C119.27 214.676 119.762 214.188 119.762 213.595ZM129.943 203.189V218.072C129.943 218.69 129.45 219.173 128.832 219.173C128.214 219.173 127.722 218.685 127.722 218.072V203.189C127.722 202.571 128.214 202.088 128.832 202.088C129.45 202.088 129.943 202.576 129.943 203.189ZM123.119 218.072V203.189C123.119 202.415 122.627 202.088 122.008 202.088C121.39 202.088 120.898 202.576 120.898 203.189V218.072C120.898 218.69 121.39 219.173 122.008 219.173C122.627 219.173 123.119 218.685 123.119 218.072ZM126.511 203.209V203.355C126.508 203.284 126.506 203.214 126.506 203.214L126.511 203.209ZM126.511 203.355V222.127C126.511 222.725 126.018 223.208 125.415 223.208C124.812 223.208 124.32 222.72 124.32 222.127V203.174C124.32 202.596 124.772 202.129 125.34 202.093C125.983 202.038 126.526 202.561 126.526 203.214C126.526 203.654 126.517 203.501 126.511 203.355Z" fill="url(#paint3_linear_3301_10909)"/>
<defs>
<linearGradient id="paint0_linear_3301_10909" x1="52.8607" y1="21.7662" x2="208.955" y2="215.796" gradientUnits="userSpaceOnUse">
<stop stop-color="#CBA23E"/>
<stop offset="0.155" stop-color="#FDF4E3"/>
<stop offset="0.285" stop-color="#CBA23E"/>
<stop offset="0.415" stop-color="#A1832A"/>
<stop offset="0.585" stop-color="#CBA23E"/>
<stop offset="0.755" stop-color="#FDF4E3"/>
<stop offset="0.95" stop-color="#CBA23E"/>
</linearGradient>
<linearGradient id="paint1_linear_3301_10909" x1="238.142" y1="232.88" x2="11.8581" y2="16.6007" gradientUnits="userSpaceOnUse">
<stop stop-color="#0D4BEF"/>
<stop offset="0.495" stop-color="#1A26E7"/>
<stop offset="1" stop-color="#7D0BF4"/>
</linearGradient>
<linearGradient id="paint2_linear_3301_10909" x1="165.918" y1="67.0814" x2="159.022" y2="18.5754" gradientUnits="userSpaceOnUse">
<stop stop-color="#EAD5A1"/>
<stop offset="1" stop-color="#F9EFD9"/>
</linearGradient>
<linearGradient id="paint3_linear_3301_10909" x1="134.755" y1="221.431" x2="107.91" y2="184.155" gradientUnits="userSpaceOnUse">
<stop stop-color="#EAD5A1"/>
<stop offset="1" stop-color="#F9EFD9"/>
</linearGradient>
</defs>
</svg>
