<svg width="35" height="35" viewBox="0 0 35 35" fill="none" xmlns="http://www.w3.org/2000/svg">
<path fill-rule="evenodd" clip-rule="evenodd" d="M11.001 17.4999C11.001 13.92 13.895 11.0012 17.4997 11.0012C21.0783 11.0012 23.9984 13.9213 23.9984 17.4999C23.9984 21.1046 21.0796 23.9987 17.4997 23.9987C13.8937 23.9987 11.001 21.1059 11.001 17.4999ZM17.4997 10.0012C13.3402 10.0012 10.001 13.3703 10.001 17.4999C10.001 21.6582 13.3415 24.9987 17.4997 24.9987C21.6293 24.9987 24.9984 21.6595 24.9984 17.4999C24.9984 13.369 21.6306 10.0012 17.4997 10.0012ZM18.2904 19.4179H18.7278C19.0832 19.4179 19.3839 19.7186 19.3839 20.074C19.3839 20.4567 19.0832 20.7301 18.7278 20.7301H16.5407C16.1579 20.7301 15.8846 20.4567 15.8846 20.074C15.8846 19.7186 16.1579 19.4179 16.5407 19.4179H16.9781V17.6682H16.7594C16.3767 17.6682 16.1033 17.3948 16.1033 17.0121C16.1033 16.6567 16.3767 16.3559 16.7594 16.3559H17.6342C17.9896 16.3559 18.2904 16.6567 18.2904 17.0121V19.4179ZM18.5091 14.6063C18.5091 15.0984 18.099 15.4811 17.6342 15.4811C17.1421 15.4811 16.7594 15.0984 16.7594 14.6063C16.7594 14.1415 17.1421 13.7314 17.6342 13.7314C18.099 13.7314 18.5091 14.1415 18.5091 14.6063Z" fill="#AEAEB2"/>
</svg>
