<svg width="250" height="250" viewBox="0 0 250 250" fill="none" xmlns="http://www.w3.org/2000/svg">
<circle cx="125" cy="125" r="125" fill="url(#paint0_linear_3244_646)"/>
<circle cx="125" cy="125" r="125" fill="white" fill-opacity="0.2" style="mix-blend-mode:soft-light"/>
<circle cx="125" cy="125" r="113.235" fill="url(#paint1_linear_3244_646)"/>
<path d="M65.0185 136.88C67.7185 135.32 70.3885 133.88 73.0285 132.56C75.7285 131.24 79.1485 129.62 83.2885 127.7C88.8685 125.18 93.1885 123.08 96.2485 121.4C99.3085 119.72 101.828 117.83 103.808 115.73C105.788 113.63 106.778 111.29 106.778 108.71C106.778 107.03 106.238 105.62 105.158 104.48C104.078 103.28 102.548 102.38 100.568 101.78C98.6485 101.18 96.3985 100.88 93.8185 100.88C89.9785 100.88 86.8285 101.75 84.3685 103.49C81.9685 105.23 80.7685 107.93 80.7685 111.59H65.0185C65.0185 107.09 66.1285 103.01 68.3485 99.35C70.5685 95.63 73.8385 92.69 78.1585 90.53C82.5385 88.31 87.7585 87.2 93.8185 87.2C99.8785 87.2 105.068 88.16 109.388 90.08C113.708 91.94 116.978 94.49 119.198 97.73C121.478 100.97 122.618 104.63 122.618 108.71C122.618 113.09 121.268 116.9 118.568 120.14C115.928 123.38 112.778 126.08 109.118 128.24C105.458 130.34 100.898 132.62 95.4385 135.08C93.9385 135.8 92.4385 136.52 90.9385 137.24C89.4385 137.9 88.2085 138.5 87.2485 139.04H87.1585C86.6785 139.34 86.3185 139.64 86.0785 139.94C85.8385 140.24 85.8385 140.6 86.0785 141.02C86.4385 141.62 87.1585 141.68 88.2385 141.2L88.5085 141.02C89.8285 140.3 91.1485 139.79 92.4685 139.49C93.7885 139.19 95.5585 139.04 97.7785 139.04H124.058V152H65.0185V136.88ZM186.008 100.88C179.888 105.92 174.998 111.17 171.338 116.63C167.738 122.09 165.128 127.67 163.508 133.37C161.888 139.07 160.988 145.19 160.808 151.73V152H143.528C144.188 145.34 145.418 139.13 147.218 133.37C149.018 127.55 151.628 122.03 155.048 116.81C158.528 111.59 162.938 106.85 168.278 102.59C168.338 102.53 168.398 102.5 168.458 102.5C169.598 101.54 169.868 100.76 169.268 100.16C168.968 99.86 168.608 99.77 168.188 99.89C167.828 99.95 167.438 100.13 167.018 100.43C166.958 100.49 166.898 100.52 166.838 100.52C166.838 100.52 166.808 100.55 166.748 100.61C166.088 101.03 165.278 101.3 164.318 101.42C163.418 101.54 162.158 101.6 160.538 101.6H129.848V88.64H186.008V100.88ZM129.848 88.64H142.088V100.88H129.848V88.64Z" fill="white"/>
<path fill-rule="evenodd" clip-rule="evenodd" d="M123.795 39.8689L127.609 30L130.707 30.0895L133.971 40.1638L131.54 40.0954L130.906 37.9224L126.985 37.8078L126.231 39.9427L123.8 39.8742L123.795 39.8689ZM129.469 32.9912L130.339 35.9769L127.659 35.8985L128.693 32.9702C128.703 32.9596 128.708 32.9491 128.708 32.928C128.708 32.907 128.713 32.8964 128.724 32.8859C128.77 32.7279 128.811 32.5594 128.832 32.3856C128.857 32.2118 128.878 32.0064 128.893 31.7695V31.7273C128.914 31.5851 128.991 31.5219 129.119 31.5219C129.253 31.5272 129.33 31.6009 129.346 31.7431V31.7853C129.351 31.9854 129.356 32.1802 129.366 32.3803C129.376 32.5805 129.402 32.7542 129.443 32.907C129.459 32.9175 129.459 32.928 129.459 32.9491C129.453 32.9649 129.469 32.9912 129.469 32.9912ZM120.758 34.7133C120.774 34.6711 120.82 34.629 120.892 34.5869L120.902 34.5816C121.293 34.371 121.601 34.0971 121.822 33.7653C122.048 33.4336 122.141 33.0649 122.11 32.6594C122.038 31.7852 121.688 31.1533 121.056 30.7583C120.424 30.3686 119.566 30.2159 118.482 30.3054L113.959 30.6846L114.751 40.6273L120.07 40.1849C121.031 40.1059 121.765 39.7794 122.259 39.2054C122.752 38.6366 122.968 37.9257 122.901 37.0778C122.87 36.7408 122.788 36.4301 122.639 36.1615C122.49 35.8929 122.279 35.6612 122.002 35.4769C121.719 35.2873 121.38 35.1714 120.979 35.1188C120.912 35.1188 120.861 35.0924 120.815 35.0556C120.768 35.0187 120.743 34.9555 120.738 34.8713C120.732 34.8081 120.738 34.7554 120.758 34.7133ZM116.421 32.4751L116.575 34.392L118.589 34.2235C118.867 34.2024 119.098 34.1392 119.283 34.0392C119.468 33.9391 119.607 33.8075 119.694 33.6495C119.782 33.4915 119.818 33.3072 119.802 33.1018C119.777 32.7911 119.658 32.5699 119.443 32.4435C119.227 32.3119 118.908 32.2697 118.487 32.3013L116.421 32.4751ZM120.26 37.8993C120.028 38.1047 119.679 38.2258 119.211 38.2627L116.894 38.4576L116.724 36.3089L118.985 36.1194C119.453 36.0825 119.828 36.1509 120.105 36.3195C120.383 36.4933 120.537 36.7408 120.563 37.0725C120.589 37.4201 120.486 37.694 120.26 37.8993ZM100.967 43.55L98.6857 33.8549L102.961 32.7963C104.226 32.4856 105.217 32.5225 105.942 32.9122C106.667 33.3019 107.134 33.9497 107.345 34.8607C107.427 35.2188 107.427 35.5927 107.33 35.9772C107.232 36.3616 107.052 36.725 106.785 37.0515C106.518 37.378 106.163 37.6308 105.731 37.8098C105.582 37.8677 105.526 37.9678 105.562 38.1152C105.598 38.2627 105.695 38.3259 105.86 38.3048C106.281 38.2469 106.631 38.2522 106.908 38.3206C107.186 38.3891 107.396 38.4839 107.545 38.6155C107.695 38.7419 107.823 38.8999 107.936 39.0895L109.354 41.4804L106.8 42.1123L105.973 40.2902C105.819 39.9479 105.649 39.6951 105.474 39.5319C105.3 39.3686 105.068 39.2738 104.781 39.2528C104.498 39.2317 104.113 39.2791 103.629 39.4002L102.447 39.6951L103.224 43.0023L100.967 43.5605V43.55ZM103.768 37.378C104.092 37.299 104.37 37.1726 104.596 37.0041C104.822 36.8356 104.991 36.6407 105.089 36.4143C105.187 36.1931 105.207 35.9508 105.146 35.6928C105.043 35.2609 104.842 34.9713 104.539 34.8291C104.236 34.6869 103.825 34.6764 103.306 34.8081L101.409 35.2767L102.006 37.8098L103.768 37.3727V37.378ZM95.9465 34.687L93.7624 35.5032L93.7727 35.5085L95.8283 41.2855C95.9774 41.7016 96.0031 42.0913 95.9157 42.4441C95.8283 42.797 95.6639 43.1024 95.4223 43.3446C95.1808 43.5869 94.9187 43.7659 94.6309 43.8713C94.3277 43.9871 94.0091 44.0293 93.675 44.0029C93.341 43.9766 93.0327 43.8555 92.7449 43.6396C92.4571 43.4289 92.2412 43.1077 92.0871 42.6811L90.0314 36.904L87.8473 37.7203L89.8464 43.3394C90.1496 44.1925 90.5762 44.8508 91.1363 45.3142C91.6913 45.7776 92.3286 46.0462 93.0481 46.12C93.7675 46.1937 94.523 46.0831 95.3093 45.7882C96.0853 45.4985 96.7277 45.0878 97.2313 44.5559C97.7298 44.024 98.0536 43.3973 98.1923 42.6706C98.3311 41.9491 98.2489 41.1592 97.9456 40.306L95.9465 34.687ZM81.1408 40.722C82.0812 40.2376 82.9857 40.0269 83.8593 40.0901C84.733 40.1533 85.5141 40.4535 86.2028 40.9854C86.8914 41.5173 87.4516 42.2177 87.8781 43.0866C88.3047 43.9555 88.5205 44.835 88.5257 45.7197C88.5308 46.6044 88.2995 47.426 87.8319 48.179C87.3642 48.9321 86.655 49.5535 85.7197 50.038C84.7792 50.5225 83.8748 50.7332 83.0011 50.67C82.1275 50.6068 81.3463 50.3066 80.6577 49.7747C79.969 49.2428 79.4089 48.5424 78.9823 47.6735C78.5558 46.8046 78.3399 45.9251 78.3348 45.0404C78.3297 44.1556 78.5609 43.3341 79.0286 42.581C79.4962 41.828 80.2054 41.2065 81.1408 40.722ZM84.8204 48.2106C85.3137 47.9579 85.6786 47.6103 85.915 47.1785C86.1514 46.7466 86.2542 46.2674 86.2285 45.7408C86.2028 45.2141 86.0589 44.6875 85.7968 44.1556C85.5347 43.6237 85.2058 43.1919 84.8101 42.8549C84.4144 42.5178 83.9775 42.323 83.4945 42.2545C83.0114 42.1861 82.5283 42.2861 82.035 42.5389C81.5416 42.7917 81.1767 43.1393 80.9403 43.5711C80.7039 44.0029 80.6011 44.4821 80.6268 45.0088C80.6525 45.5354 80.7964 46.062 81.0585 46.5939C81.3206 47.1258 81.6495 47.5576 82.0452 47.8947C82.4409 48.2317 82.8778 48.4266 83.3609 48.495C83.8388 48.5582 84.327 48.4634 84.8204 48.2106ZM68 48.9795L70.1173 47.584L73.504 49.4114C73.504 49.4114 73.5194 49.4272 73.5297 49.4272C73.6479 49.4956 73.7918 49.6431 73.9562 49.8695C74.0025 49.9433 74.0539 49.9907 74.1104 50.0223C74.1669 50.0539 74.2286 50.0433 74.3005 49.9959C74.3725 49.9485 74.4033 49.8959 74.4033 49.8274C74.4033 49.7642 74.3776 49.6958 74.3314 49.622C74.3057 49.5641 74.2749 49.5009 74.244 49.443L74.244 49.4429C74.2132 49.385 74.1823 49.3271 74.1567 49.2639C74.1412 49.2218 74.131 49.1744 74.1258 49.1323L74.1104 49.0059L73.8843 45.0931L76.0016 43.6975L76.274 50.9333L78.2525 54.0773L76.2997 55.3675L74.3211 52.2235L68 48.9795ZM138.421 30.7478L136.119 30.4371L134.855 40.3271L141.875 41.2697L142.132 39.2475L137.414 38.6155L138.421 30.7478ZM142.754 41.3645L148.489 32.5278L151.5 33.2756L152.646 43.8239L150.282 43.234L150.103 40.972L146.298 40.0268L145.128 41.9543L142.764 41.3645H142.754ZM149.696 35.8402L149.943 38.9476L147.345 38.3023L148.951 35.6559C148.967 35.6506 148.977 35.6401 148.977 35.6191C148.977 35.6033 148.987 35.5875 148.998 35.5822C149.08 35.44 149.152 35.282 149.208 35.1188C149.265 34.9502 149.326 34.7554 149.388 34.5289L149.398 34.4868C149.445 34.3552 149.537 34.3025 149.66 34.3341C149.794 34.3657 149.856 34.4552 149.84 34.5974L149.83 34.6395C149.794 34.8344 149.758 35.0292 149.727 35.2241C149.696 35.4189 149.686 35.598 149.696 35.756V35.7981C149.686 35.8139 149.696 35.8402 149.696 35.8402ZM156.85 34.7607L153.469 44.1135L155.647 44.9403L157.837 38.8789C157.893 38.7314 157.929 38.5734 157.934 38.4102C157.94 38.2469 157.945 38.0679 157.934 37.873C157.929 37.852 157.924 37.8256 157.924 37.794C157.924 37.7624 157.914 37.715 157.914 37.715V37.6834C157.909 37.5623 157.924 37.4728 157.96 37.4096C157.996 37.3517 158.063 37.3253 158.155 37.3411C158.202 37.3464 158.238 37.378 158.258 37.4254C158.279 37.4728 158.294 37.5255 158.304 37.5781L158.654 46.0831L161.974 47.3417L165.355 37.9889L163.176 37.1621L160.987 43.2235C160.93 43.371 160.895 43.529 160.889 43.6922C160.884 43.8555 160.879 44.0345 160.889 44.2294C160.895 44.2504 160.9 44.2768 160.9 44.3084C160.91 44.34 160.91 44.3663 160.91 44.3874C160.915 44.5243 160.905 44.6243 160.869 44.6981C160.833 44.7665 160.766 44.7929 160.668 44.7665C160.632 44.7613 160.602 44.7402 160.581 44.7033C160.56 44.6665 160.545 44.6243 160.53 44.5769C160.528 44.5714 160.527 44.5665 160.526 44.5625C160.525 44.5551 160.525 44.5506 160.525 44.5506C160.525 44.5454 160.519 44.5243 160.519 44.5243L160.17 36.0193L156.85 34.7607ZM165.288 43.3762C165.72 42.5073 166.28 41.8122 166.969 41.2803C167.658 40.7484 168.434 40.4535 169.297 40.3903C170.16 40.3271 171.055 40.5377 171.985 41.0222C172.838 41.4699 173.48 42.0228 173.907 42.6758C174.333 43.3341 174.57 44.0134 174.611 44.7191C174.652 45.4248 174.549 46.0883 174.302 46.715L172.247 45.6407C172.339 45.33 172.375 44.9982 172.35 44.6507C172.324 44.3031 172.216 43.9713 172.016 43.6501C171.82 43.3288 171.512 43.0603 171.101 42.8496C170.623 42.6021 170.15 42.5073 169.672 42.5705C169.194 42.6337 168.752 42.8338 168.351 43.1708C167.945 43.5079 167.616 43.9344 167.354 44.4558C167.097 44.9772 166.954 45.5038 166.928 46.0357C166.902 46.5676 167.005 47.0521 167.231 47.4839C167.462 47.9157 167.812 48.258 168.29 48.5055C168.701 48.7215 169.091 48.8163 169.461 48.7899C169.831 48.7636 170.16 48.6635 170.448 48.4792C170.736 48.2949 170.977 48.0737 171.168 47.8104L173.223 48.8847C172.879 49.4587 172.411 49.9327 171.831 50.3119C171.25 50.691 170.571 50.8964 169.801 50.928C169.03 50.9596 168.218 50.7542 167.365 50.3066C166.434 49.8221 165.741 49.2007 165.283 48.4476C164.826 47.6945 164.605 46.8783 164.62 45.9935C164.636 45.1088 164.857 44.2346 165.288 43.371V43.3762ZM178.743 47.5682L182.916 50.3487L182.921 50.354L184.005 48.6425L177.884 44.5664L172.581 52.9292L178.702 57.0053L179.786 55.2937L175.613 52.5132L176.667 50.849L180.099 53.1346L181.122 51.5178L177.689 49.2323L178.743 47.5682Z" fill="url(#paint2_linear_3244_646)"/>
<path fill-rule="evenodd" clip-rule="evenodd" d="M126.008 189.673H125.948H123.525H123.464V179.012H123.525H125.948H126.008V189.673ZM108.866 189.673V179.012H112.924L114.863 186.463L114.923 186.693C114.996 187.014 115.032 187.317 115.044 187.602C115.044 187.693 115.063 187.765 115.099 187.82C115.135 187.874 115.196 187.905 115.287 187.905C115.378 187.905 115.438 187.874 115.474 187.82C115.511 187.765 115.529 187.693 115.529 187.602C115.541 187.317 115.577 187.014 115.65 186.693L115.711 186.463L117.649 179.012H121.708V189.673H119.163V182.78C119.163 182.598 119.188 182.392 119.23 182.168C119.272 181.944 119.333 181.714 119.406 181.496C119.412 181.481 119.416 181.465 119.421 181.45C119.425 181.435 119.43 181.42 119.436 181.405C119.442 181.39 119.447 181.375 119.451 181.36L119.451 181.359C119.456 181.344 119.46 181.329 119.466 181.314L119.497 181.253C119.527 181.132 119.533 181.041 119.521 180.975C119.509 180.908 119.46 180.866 119.375 180.848C119.285 180.829 119.224 180.842 119.188 180.884C119.151 180.926 119.121 181.005 119.091 181.102L116.801 189.673H113.772L111.489 181.102C111.458 180.999 111.428 180.926 111.392 180.884C111.355 180.842 111.295 180.823 111.204 180.848C111.125 180.866 111.077 180.908 111.059 180.975C111.04 181.041 111.052 181.126 111.083 181.241L111.113 181.314L111.162 181.447C111.24 181.678 111.307 181.914 111.349 182.144C111.392 182.374 111.416 182.586 111.416 182.78V189.673H108.872H108.866ZM127.765 179.012V189.673L127.777 189.667H130.321V182.762C130.321 182.586 130.297 182.416 130.249 182.253C130.194 182.083 130.127 181.908 130.049 181.714C130.046 181.705 130.04 181.695 130.034 181.684C130.027 181.671 130.019 181.657 130.012 181.641L129.976 181.568L129.958 181.538C129.903 181.417 129.885 181.314 129.903 181.241C129.921 181.163 129.976 181.114 130.079 181.096C130.127 181.09 130.17 181.102 130.212 181.144C130.255 181.187 130.291 181.235 130.321 181.284L133.835 189.673H137.711V179.012H135.167V185.918C135.167 186.093 135.191 186.257 135.24 186.427C135.288 186.596 135.355 186.772 135.434 186.966C135.437 186.974 135.442 186.984 135.449 186.996C135.456 187.008 135.464 187.023 135.47 187.038C135.474 187.046 135.478 187.055 135.482 187.064L135.482 187.064C135.49 187.081 135.498 187.099 135.506 187.111C135.567 187.244 135.591 187.353 135.579 187.438C135.567 187.523 135.506 187.571 135.397 187.584C135.355 187.596 135.319 187.584 135.282 187.553C135.246 187.523 135.216 187.493 135.185 187.45C135.167 187.438 135.167 187.426 135.167 187.426C135.167 187.42 135.155 187.402 135.155 187.402L131.642 179.012H127.765ZM142 189.673H141.939H139.516H139.456V179.012H139.516H141.939H142V189.673ZM139.193 194.753H111.672C111.672 196.602 113.2 198.114 115.064 198.114H135.802C137.666 198.114 139.193 196.602 139.193 194.753ZM137.214 199.104H113.652C113.652 200.129 114.501 200.973 115.537 200.973H135.329C136.364 200.973 137.214 200.134 137.214 199.104ZM116.426 211.39V202.089C115.823 202.089 115.331 202.576 115.331 203.169V210.31C115.331 210.907 115.823 211.39 116.426 211.39ZM134.43 202.094V211.41C135.033 211.41 135.525 210.923 135.525 210.33V203.174C135.525 202.576 135.033 202.094 134.43 202.094ZM133.279 213.596C133.279 214.194 132.787 214.676 132.169 214.676C131.551 214.676 131.073 214.189 131.073 213.576V203.154C131.073 202.556 131.566 202.074 132.169 202.074C132.772 202.074 133.264 202.561 133.264 203.154V213.576L133.284 213.596H133.279ZM119.762 213.596V203.174C119.762 202.576 119.27 202.094 118.667 202.094C118.064 202.094 117.572 202.581 117.572 203.174V213.596C117.572 214.194 118.064 214.676 118.667 214.676C119.27 214.676 119.762 214.189 119.762 213.596ZM129.943 203.189V218.073C129.943 218.691 129.45 219.173 128.832 219.173C128.214 219.173 127.722 218.686 127.722 218.073V203.189C127.722 202.571 128.214 202.089 128.832 202.089C129.45 202.089 129.943 202.576 129.943 203.189ZM123.119 218.073V203.189C123.119 202.416 122.627 202.089 122.008 202.089C121.39 202.089 120.898 202.576 120.898 203.189V218.073C120.898 218.691 121.39 219.173 122.008 219.173C122.627 219.173 123.119 218.686 123.119 218.073ZM126.511 203.209V203.355C126.508 203.284 126.506 203.214 126.506 203.214L126.511 203.209ZM126.511 203.355V222.128C126.511 222.726 126.018 223.208 125.415 223.208C124.812 223.208 124.32 222.721 124.32 222.128V203.174C124.32 202.596 124.772 202.129 125.34 202.094C125.983 202.039 126.526 202.561 126.526 203.214C126.526 203.655 126.517 203.502 126.511 203.355Z" fill="url(#paint3_linear_3244_646)"/>
<defs>
<linearGradient id="paint0_linear_3244_646" x1="52.8607" y1="21.7662" x2="208.955" y2="215.796" gradientUnits="userSpaceOnUse">
<stop stop-color="#CBA23E"/>
<stop offset="0.155" stop-color="#FDF4E3"/>
<stop offset="0.285" stop-color="#CBA23E"/>
<stop offset="0.415" stop-color="#A1832A"/>
<stop offset="0.585" stop-color="#CBA23E"/>
<stop offset="0.755" stop-color="#FDF4E3"/>
<stop offset="0.95" stop-color="#CBA23E"/>
</linearGradient>
<linearGradient id="paint1_linear_3244_646" x1="238.142" y1="232.88" x2="11.8581" y2="16.6007" gradientUnits="userSpaceOnUse">
<stop stop-color="#0D4BEF"/>
<stop offset="0.495" stop-color="#1A26E7"/>
<stop offset="1" stop-color="#7D0BF4"/>
</linearGradient>
<linearGradient id="paint2_linear_3244_646" x1="158.641" y1="55.9194" x2="154.361" y2="21.8671" gradientUnits="userSpaceOnUse">
<stop stop-color="#EAD5A1"/>
<stop offset="1" stop-color="#F9EFD9"/>
</linearGradient>
<linearGradient id="paint3_linear_3244_646" x1="134.755" y1="221.431" x2="107.91" y2="184.155" gradientUnits="userSpaceOnUse">
<stop stop-color="#EAD5A1"/>
<stop offset="1" stop-color="#F9EFD9"/>
</linearGradient>
</defs>
</svg>
