<svg width="250" height="250" viewBox="0 0 250 250" fill="none" xmlns="http://www.w3.org/2000/svg">
<circle cx="125" cy="125" r="125" fill="url(#paint0_linear_3301_10911)"/>
<circle cx="125" cy="125" r="125" fill="white" fill-opacity="0.2" style="mix-blend-mode:soft-light"/>
<circle cx="125" cy="125" r="113.235" fill="url(#paint1_linear_3301_10911)"/>
<path fill-rule="evenodd" clip-rule="evenodd" d="M134.601 30.492L125.731 30V29.9951L125.614 32.0945L128.824 32.2747L128.371 40.4434L130.821 40.5798L131.274 32.4111L134.484 32.5914L134.601 30.492ZM115.585 40.7598L115.015 30.4869L119.657 30.2287C121.031 30.1508 122.053 30.3797 122.731 30.9155C123.408 31.4465 123.773 32.1966 123.827 33.1611C123.846 33.541 123.773 33.9161 123.602 34.2911C123.432 34.6662 123.179 34.9974 122.838 35.2799C122.497 35.5625 122.088 35.7524 121.605 35.845C121.44 35.8742 121.362 35.9668 121.372 36.1226C121.381 36.2785 121.474 36.3613 121.649 36.371C122.097 36.3954 122.463 36.4685 122.735 36.5902C123.008 36.712 123.213 36.8533 123.344 37.0092C123.476 37.1699 123.578 37.3501 123.661 37.5644L124.689 40.2581L121.917 40.414L121.396 38.4071C121.298 38.0321 121.172 37.7447 121.021 37.545C120.87 37.3453 120.646 37.204 120.354 37.1261C120.061 37.0481 119.652 37.0238 119.126 37.053L117.84 37.1261L118.035 40.6283L115.585 40.7647V40.7598ZM119.642 35.0315C119.993 35.012 120.305 34.939 120.573 34.8123C120.845 34.6857 121.05 34.5152 121.196 34.3106C121.342 34.1012 121.406 33.8625 121.391 33.5897C121.367 33.1318 121.206 32.8006 120.919 32.6009C120.631 32.3963 120.203 32.3135 119.637 32.3427L117.582 32.4548L117.733 35.1387L119.642 35.0315ZM105.969 31.9195L104.114 42.7088L104.109 42.7136L106.642 42.2558L106.968 39.9367L111.048 39.1985L112.165 41.2572L114.698 40.7993L109.189 31.3398L105.969 31.9195ZM110.049 37.3576L108.517 34.5352C108.517 34.5352 108.498 34.5157 108.493 34.4963C108.493 34.4768 108.483 34.4622 108.468 34.4573C108.39 34.3112 108.332 34.1407 108.278 33.941L108.132 33.3418L108.122 33.298C108.079 33.1567 107.981 33.0983 107.84 33.1275C107.704 33.1519 107.64 33.2395 107.65 33.3857L107.66 33.4295C107.694 33.6731 107.718 33.8825 107.728 34.0627C107.743 34.243 107.738 34.4183 107.718 34.5937C107.708 34.6034 107.708 34.618 107.713 34.6375C107.713 34.657 107.713 34.6716 107.708 34.6814L107.26 37.8622L110.049 37.3576ZM97.6937 33.9599C98.9991 33.5703 100.056 33.5751 100.86 33.9794C101.664 34.3837 102.204 35.0608 102.487 36.0009C102.667 36.6 102.696 37.1894 102.574 37.7691C102.453 38.3487 102.165 38.8748 101.717 39.3375C101.269 39.8003 100.65 40.151 99.8662 40.3848L97.5427 41.0814L98.5461 44.4423L96.1934 45.1438L93.2465 35.2897L97.6986 33.9599H97.6937ZM98.9407 38.5874C99.4619 38.4315 99.8272 38.1977 100.037 37.886C100.241 37.5742 100.285 37.2186 100.168 36.8192C100.037 36.3808 99.8077 36.0983 99.4765 35.9668C99.1501 35.8353 98.7117 35.8499 98.171 36.0155L96.1983 36.6049L96.9679 39.1817L98.9407 38.5923V38.5874ZM85.823 38.188L83.6262 39.2888L83.6311 39.2937L86.4708 44.9636C86.6754 45.3776 86.7534 45.7673 86.6998 46.1423C86.6462 46.5174 86.5098 46.8438 86.2858 47.1263C86.0617 47.4088 85.8035 47.6183 85.5161 47.7644C85.2093 47.9154 84.878 47.9982 84.5273 48.0128C84.1766 48.0274 83.8356 47.9397 83.5093 47.7546C83.1829 47.5695 82.915 47.2675 82.7056 46.8486L79.8658 41.1788L77.6689 42.2796L80.4308 47.7936C80.8497 48.6266 81.3758 49.25 82.0188 49.6592C82.6569 50.0684 83.3583 50.2632 84.123 50.2535C84.8878 50.2389 85.6623 50.0391 86.4562 49.6397C87.2405 49.2452 87.864 48.7483 88.3316 48.1443C88.7992 47.5403 89.0622 46.8584 89.1207 46.0985C89.184 45.3386 89.0038 44.5398 88.5849 43.702L85.823 38.188ZM75.4039 43.5898L68 48.4998L69.1642 50.2534L71.8432 48.4755L76.3635 55.2949L78.4093 53.9407L73.889 47.1213L76.5681 45.3434L75.4039 43.5898ZM144.373 34.1647L139.185 33.2928L138.844 35.3094L143.111 36.0254L142.78 37.9836L138.513 37.2675L138.172 39.2841L143.359 40.156L143.009 42.2311L135.4 40.95L137.105 30.8037L144.714 32.0848L144.363 34.1598L144.373 34.1647ZM160.793 36.9654L158.474 36.1568L157.125 40.0195L153.15 38.6313L154.499 34.7685L152.181 33.96L148.786 43.6727L151.104 44.4813L152.454 40.6186L156.428 42.0069L155.079 45.8696L157.398 46.6782L160.793 36.9654ZM167.977 40.0781C168.971 40.5749 169.716 41.2179 170.213 41.9924C170.71 42.7718 170.954 43.6145 170.949 44.5302C170.944 45.4411 170.715 46.3471 170.262 47.2434C169.809 48.1396 169.219 48.8605 168.494 49.4109C167.768 49.9614 166.94 50.2682 166.019 50.3316C165.099 50.3949 164.139 50.1806 163.15 49.6837C162.161 49.1869 161.411 48.5488 160.914 47.7694C160.418 46.9901 160.169 46.1474 160.179 45.2316C160.184 44.3207 160.413 43.4147 160.866 42.5185C161.319 41.6222 161.908 40.8964 162.634 40.3509C163.365 39.8005 164.188 39.4936 165.108 39.4303C166.029 39.3669 166.989 39.5813 167.977 40.0781ZM164.09 47.8084C164.611 48.0714 165.128 48.1688 165.634 48.1006C166.141 48.0325 166.604 47.8279 167.023 47.482C167.442 47.1362 167.787 46.6881 168.065 46.1425C168.343 45.5921 168.494 45.0465 168.518 44.5058C168.547 43.9652 168.435 43.4683 168.187 43.0202C167.938 42.5721 167.554 42.2165 167.027 41.9534C166.501 41.6904 165.99 41.593 165.483 41.6612C164.977 41.7294 164.514 41.934 164.095 42.2798C163.676 42.6256 163.33 43.0738 163.053 43.6193C162.775 44.1697 162.624 44.7153 162.6 45.256C162.571 45.7967 162.683 46.2935 162.931 46.7416C163.179 47.1898 163.564 47.5454 164.09 47.8084ZM175.722 44.6713L173.501 43.2051H173.496L173.121 50.6626L170.993 53.8823L173.043 55.2365L175.172 52.0167L181.889 48.7483L179.668 47.2821L176.068 49.1233C176.049 49.1331 176.03 49.144 176.012 49.155C175.994 49.166 175.976 49.1769 175.956 49.1867C175.922 49.211 175.883 49.2403 175.849 49.2744C175.8 49.3279 175.756 49.3815 175.717 49.4351C175.688 49.474 175.659 49.5087 175.63 49.5433C175.615 49.5606 175.601 49.578 175.586 49.5958C175.542 49.6689 175.484 49.7225 175.425 49.7517C175.367 49.7809 175.299 49.7712 175.225 49.7225C175.152 49.6738 175.118 49.6153 175.123 49.5471C175.128 49.4789 175.152 49.4107 175.201 49.3377C175.347 49.0795 175.425 48.8798 175.44 48.7385C175.435 48.7239 175.44 48.7044 175.44 48.7044L175.722 44.6713Z" fill="url(#paint2_linear_3301_10911)"/>
<path fill-rule="evenodd" clip-rule="evenodd" d="M126.008 189.673H125.948H123.525H123.464V179.012H123.525H125.948H126.008V189.673ZM108.866 189.673V179.012H112.924L114.863 186.462L114.923 186.693C114.996 187.014 115.032 187.317 115.044 187.601C115.044 187.692 115.063 187.765 115.099 187.819C115.135 187.874 115.196 187.904 115.287 187.904C115.378 187.904 115.438 187.874 115.474 187.819C115.511 187.765 115.529 187.692 115.529 187.601C115.541 187.317 115.577 187.014 115.65 186.693L115.711 186.462L117.649 179.012H121.708V189.673H119.163V182.779C119.163 182.598 119.188 182.392 119.23 182.168C119.272 181.944 119.333 181.713 119.406 181.495C119.412 181.48 119.416 181.465 119.421 181.45C119.425 181.435 119.43 181.42 119.436 181.404C119.442 181.389 119.447 181.374 119.451 181.359L119.451 181.359C119.456 181.344 119.46 181.329 119.466 181.314L119.497 181.253C119.527 181.132 119.533 181.041 119.521 180.974C119.509 180.908 119.46 180.865 119.375 180.847C119.285 180.829 119.224 180.841 119.188 180.884C119.151 180.926 119.121 181.005 119.091 181.102L116.801 189.673H113.772L111.489 181.102C111.458 180.999 111.428 180.926 111.392 180.884C111.355 180.841 111.295 180.823 111.204 180.847C111.125 180.865 111.077 180.908 111.059 180.974C111.04 181.041 111.052 181.126 111.083 181.241L111.113 181.314L111.162 181.447C111.24 181.677 111.307 181.913 111.349 182.143C111.392 182.374 111.416 182.586 111.416 182.779V189.673H108.872H108.866ZM127.765 179.012V189.673L127.777 189.667H130.321V182.761C130.321 182.586 130.297 182.416 130.249 182.252C130.194 182.083 130.127 181.907 130.049 181.713C130.046 181.705 130.04 181.695 130.034 181.683C130.027 181.671 130.019 181.656 130.012 181.641L129.976 181.568L129.958 181.538C129.903 181.417 129.885 181.314 129.903 181.241C129.921 181.162 129.976 181.114 130.079 181.095C130.127 181.089 130.17 181.102 130.212 181.144C130.255 181.186 130.291 181.235 130.321 181.283L133.835 189.673H137.711V179.012H135.167V185.917C135.167 186.093 135.191 186.256 135.24 186.426C135.288 186.596 135.355 186.771 135.434 186.965C135.437 186.974 135.442 186.984 135.449 186.995C135.456 187.008 135.464 187.022 135.47 187.038C135.474 187.046 135.478 187.055 135.482 187.063L135.482 187.063C135.49 187.081 135.498 187.098 135.506 187.111C135.567 187.244 135.591 187.353 135.579 187.438C135.567 187.522 135.506 187.571 135.397 187.583C135.355 187.595 135.319 187.583 135.282 187.553C135.246 187.522 135.216 187.492 135.185 187.45C135.167 187.438 135.167 187.426 135.167 187.426C135.167 187.419 135.155 187.401 135.155 187.401L131.642 179.012H127.765ZM142 189.673H141.939H139.516H139.456V179.012H139.516H141.939H142V189.673ZM139.193 194.752H111.672C111.672 196.601 113.2 198.114 115.064 198.114H135.802C137.666 198.114 139.193 196.601 139.193 194.752ZM137.214 199.104H113.652C113.652 200.129 114.501 200.973 115.537 200.973H135.329C136.364 200.973 137.214 200.134 137.214 199.104ZM116.426 211.389V202.088C115.823 202.088 115.331 202.576 115.331 203.169V210.309C115.331 210.907 115.823 211.389 116.426 211.389ZM134.43 202.093V211.409C135.033 211.409 135.525 210.922 135.525 210.329V203.174C135.525 202.576 135.033 202.093 134.43 202.093ZM133.279 213.595C133.279 214.193 132.787 214.676 132.169 214.676C131.551 214.676 131.073 214.188 131.073 213.575V203.154C131.073 202.556 131.566 202.073 132.169 202.073C132.772 202.073 133.264 202.561 133.264 203.154V213.575L133.284 213.595H133.279ZM119.762 213.595V203.174C119.762 202.576 119.27 202.093 118.667 202.093C118.064 202.093 117.572 202.581 117.572 203.174V213.595C117.572 214.193 118.064 214.676 118.667 214.676C119.27 214.676 119.762 214.188 119.762 213.595ZM129.943 203.189V218.072C129.943 218.69 129.45 219.173 128.832 219.173C128.214 219.173 127.722 218.685 127.722 218.072V203.189C127.722 202.571 128.214 202.088 128.832 202.088C129.45 202.088 129.943 202.576 129.943 203.189ZM123.119 218.072V203.189C123.119 202.415 122.627 202.088 122.008 202.088C121.39 202.088 120.898 202.576 120.898 203.189V218.072C120.898 218.69 121.39 219.173 122.008 219.173C122.627 219.173 123.119 218.685 123.119 218.072ZM126.511 203.209V203.355C126.508 203.284 126.506 203.214 126.506 203.214L126.511 203.209ZM126.511 203.355V222.127C126.511 222.725 126.018 223.208 125.415 223.208C124.812 223.208 124.32 222.72 124.32 222.127V203.174C124.32 202.596 124.772 202.129 125.34 202.093C125.983 202.038 126.526 202.561 126.526 203.214C126.526 203.654 126.517 203.501 126.511 203.355Z" fill="url(#paint3_linear_3301_10911)"/>
<defs>
<linearGradient id="paint0_linear_3301_10911" x1="52.8607" y1="21.7662" x2="208.955" y2="215.796" gradientUnits="userSpaceOnUse">
<stop stop-color="#CBA23E"/>
<stop offset="0.155" stop-color="#FDF4E3"/>
<stop offset="0.285" stop-color="#CBA23E"/>
<stop offset="0.415" stop-color="#A1832A"/>
<stop offset="0.585" stop-color="#CBA23E"/>
<stop offset="0.755" stop-color="#FDF4E3"/>
<stop offset="0.95" stop-color="#CBA23E"/>
</linearGradient>
<linearGradient id="paint1_linear_3301_10911" x1="238.142" y1="232.88" x2="11.8581" y2="16.6007" gradientUnits="userSpaceOnUse">
<stop stop-color="#0D4BEF"/>
<stop offset="0.495" stop-color="#1A26E7"/>
<stop offset="1" stop-color="#7D0BF4"/>
</linearGradient>
<linearGradient id="paint2_linear_3301_10911" x1="156.988" y1="54.2776" x2="153.156" y2="22.3314" gradientUnits="userSpaceOnUse">
<stop stop-color="#EAD5A1"/>
<stop offset="1" stop-color="#F9EFD9"/>
</linearGradient>
<linearGradient id="paint3_linear_3301_10911" x1="134.755" y1="221.431" x2="107.91" y2="184.155" gradientUnits="userSpaceOnUse">
<stop stop-color="#EAD5A1"/>
<stop offset="1" stop-color="#F9EFD9"/>
</linearGradient>
</defs>
</svg>
