<svg width="250" height="250" viewBox="0 0 250 250" fill="none" xmlns="http://www.w3.org/2000/svg">
<circle cx="125" cy="125" r="125" fill="url(#paint0_linear_3301_10912)"/>
<circle cx="125" cy="125" r="125" fill="white" fill-opacity="0.2" style="mix-blend-mode:soft-light"/>
<circle cx="125" cy="125" r="113.235" fill="url(#paint1_linear_3301_10912)"/>
<path fill-rule="evenodd" clip-rule="evenodd" d="M126.008 189.673H125.948H123.525H123.464V179.012H123.525H125.948H126.008V189.673ZM108.866 189.673V179.012H112.924L114.863 186.462L114.923 186.693C114.996 187.014 115.032 187.317 115.044 187.601C115.044 187.692 115.063 187.765 115.099 187.819C115.135 187.874 115.196 187.904 115.287 187.904C115.378 187.904 115.438 187.874 115.474 187.819C115.511 187.765 115.529 187.692 115.529 187.601C115.541 187.317 115.577 187.014 115.65 186.693L115.711 186.462L117.649 179.012H121.708V189.673H119.163V182.779C119.163 182.598 119.188 182.392 119.23 182.168C119.272 181.944 119.333 181.713 119.406 181.495C119.412 181.48 119.416 181.465 119.421 181.45C119.425 181.435 119.43 181.42 119.436 181.404C119.442 181.389 119.447 181.374 119.451 181.359L119.451 181.359C119.456 181.344 119.46 181.329 119.466 181.314L119.497 181.253C119.527 181.132 119.533 181.041 119.521 180.974C119.509 180.908 119.46 180.865 119.375 180.847C119.285 180.829 119.224 180.841 119.188 180.884C119.151 180.926 119.121 181.005 119.091 181.102L116.801 189.673H113.772L111.489 181.102C111.458 180.999 111.428 180.926 111.392 180.884C111.355 180.841 111.295 180.823 111.204 180.847C111.125 180.865 111.077 180.908 111.059 180.974C111.04 181.041 111.052 181.126 111.083 181.241L111.113 181.314L111.162 181.447C111.24 181.677 111.307 181.913 111.349 182.143C111.392 182.374 111.416 182.586 111.416 182.779V189.673H108.872H108.866ZM127.765 179.012V189.673L127.777 189.667H130.321V182.761C130.321 182.586 130.297 182.416 130.249 182.252C130.194 182.083 130.127 181.907 130.049 181.713C130.046 181.705 130.04 181.695 130.034 181.683C130.027 181.671 130.019 181.656 130.012 181.641L129.976 181.568L129.958 181.538C129.903 181.417 129.885 181.314 129.903 181.241C129.921 181.162 129.976 181.114 130.079 181.095C130.127 181.089 130.17 181.102 130.212 181.144C130.255 181.186 130.291 181.235 130.321 181.283L133.835 189.673H137.711V179.012H135.167V185.917C135.167 186.093 135.191 186.256 135.24 186.426C135.288 186.596 135.355 186.771 135.434 186.965C135.437 186.974 135.442 186.984 135.449 186.995C135.456 187.008 135.464 187.022 135.47 187.038C135.474 187.046 135.478 187.055 135.482 187.063L135.482 187.063C135.49 187.081 135.498 187.098 135.506 187.111C135.567 187.244 135.591 187.353 135.579 187.438C135.567 187.522 135.506 187.571 135.397 187.583C135.355 187.595 135.319 187.583 135.282 187.553C135.246 187.522 135.216 187.492 135.185 187.45C135.167 187.438 135.167 187.426 135.167 187.426C135.167 187.419 135.155 187.401 135.155 187.401L131.642 179.012H127.765ZM142 189.673H141.939H139.516H139.456V179.012H139.516H141.939H142V189.673ZM139.193 194.752H111.672C111.672 196.601 113.2 198.114 115.064 198.114H135.802C137.666 198.114 139.193 196.601 139.193 194.752ZM137.214 199.104H113.652C113.652 200.129 114.501 200.973 115.537 200.973H135.329C136.364 200.973 137.214 200.134 137.214 199.104ZM116.426 211.389V202.088C115.823 202.088 115.331 202.576 115.331 203.169V210.309C115.331 210.907 115.823 211.389 116.426 211.389ZM134.43 202.093V211.409C135.033 211.409 135.525 210.922 135.525 210.329V203.174C135.525 202.576 135.033 202.093 134.43 202.093ZM133.279 213.595C133.279 214.193 132.787 214.676 132.169 214.676C131.551 214.676 131.073 214.188 131.073 213.575V203.154C131.073 202.556 131.566 202.073 132.169 202.073C132.772 202.073 133.264 202.561 133.264 203.154V213.575L133.284 213.595H133.279ZM119.762 213.595V203.174C119.762 202.576 119.27 202.093 118.667 202.093C118.064 202.093 117.572 202.581 117.572 203.174V213.595C117.572 214.193 118.064 214.676 118.667 214.676C119.27 214.676 119.762 214.188 119.762 213.595ZM129.943 203.189V218.072C129.943 218.69 129.45 219.173 128.832 219.173C128.214 219.173 127.722 218.685 127.722 218.072V203.189C127.722 202.571 128.214 202.088 128.832 202.088C129.45 202.088 129.943 202.576 129.943 203.189ZM123.119 218.072V203.189C123.119 202.415 122.627 202.088 122.008 202.088C121.39 202.088 120.898 202.576 120.898 203.189V218.072C120.898 218.69 121.39 219.173 122.008 219.173C122.627 219.173 123.119 218.685 123.119 218.072ZM126.511 203.209V203.355C126.508 203.284 126.506 203.214 126.506 203.214L126.511 203.209ZM126.511 203.355V222.127C126.511 222.725 126.018 223.208 125.415 223.208C124.812 223.208 124.32 222.72 124.32 222.127V203.174C124.32 202.596 124.772 202.129 125.34 202.093C125.983 202.038 126.526 202.561 126.526 203.214C126.526 203.654 126.517 203.501 126.511 203.355Z" fill="url(#paint2_linear_3301_10912)"/>
<path fill-rule="evenodd" clip-rule="evenodd" d="M121.835 39.8623L125.646 30L128.808 30.0659L132.22 40.074L129.735 40.0222L129.07 37.8623L125.066 37.7826L124.315 39.914L121.83 39.8623H121.835ZM127.561 32.9596L128.476 35.9299L125.738 35.8755L126.771 32.9455C126.78 32.9361 126.785 32.922 126.785 32.9032C126.785 32.8843 126.79 32.8702 126.799 32.8608C126.851 32.7008 126.884 32.5361 126.907 32.362C126.931 32.188 126.95 31.9856 126.964 31.7504V31.708C126.987 31.5669 127.063 31.501 127.194 31.501C127.336 31.5057 127.416 31.5763 127.43 31.7174V31.7598C127.434 31.9574 127.444 32.155 127.453 32.3526C127.463 32.5503 127.491 32.7244 127.533 32.8749C127.547 32.8843 127.547 32.8984 127.547 32.9173C127.547 32.9361 127.561 32.9596 127.561 32.9596ZM119.196 34.3195C118.57 34.1501 117.798 34.056 116.881 34.0372V34.0278C116.396 34.0184 116.029 33.976 115.77 33.9007C115.511 33.8254 115.337 33.7313 115.248 33.6184C115.154 33.5055 115.102 33.3737 115.088 33.2232C115.074 33.0632 115.111 32.9079 115.201 32.7526C115.29 32.5974 115.445 32.4656 115.671 32.348C115.897 32.2304 116.198 32.1551 116.584 32.1174C116.97 32.0798 117.29 32.1174 117.544 32.2257C117.798 32.3339 117.991 32.4797 118.118 32.6727C118.245 32.8656 118.32 33.0773 118.344 33.3126L120.621 33.0961C120.537 32.508 120.334 31.981 120.005 31.5152C119.675 31.0493 119.21 30.6917 118.612 30.4471C118.01 30.2024 117.285 30.1224 116.434 30.2024C115.596 30.2777 114.895 30.4753 114.326 30.7905C113.756 31.1011 113.337 31.501 113.069 31.9716C112.801 32.4421 112.698 32.9644 112.749 33.5243C112.806 34.1313 112.975 34.6301 113.253 35.0206C113.53 35.4064 113.968 35.7123 114.566 35.9287C115.163 36.1499 115.968 36.2722 116.984 36.3098C117.478 36.3287 117.869 36.3804 118.156 36.4557C118.443 36.5357 118.65 36.6392 118.781 36.7662C118.913 36.898 118.989 37.0627 119.007 37.2697C119.026 37.4673 118.979 37.6602 118.871 37.8485C118.763 38.0414 118.57 38.2061 118.297 38.3519C118.024 38.4978 117.662 38.5919 117.21 38.6342C116.739 38.6766 116.354 38.6295 116.048 38.4884C115.742 38.3472 115.511 38.1449 115.365 37.8861C115.215 37.6273 115.125 37.3403 115.097 37.0203L112.763 37.2415C112.829 37.919 113.046 38.5213 113.413 39.053C113.78 39.5847 114.302 39.9894 114.975 40.267C115.648 40.5493 116.452 40.6387 117.389 40.5493C118.306 40.4599 119.069 40.2434 119.685 39.8906C120.297 39.5377 120.744 39.1048 121.021 38.5872C121.299 38.0696 121.407 37.5097 121.351 36.9121C121.28 36.1922 121.064 35.6229 120.692 35.2041C120.32 34.7853 119.821 34.4889 119.196 34.3195ZM102.746 32.7573L105.033 32.1315L106.604 37.8766C106.844 38.7471 106.863 39.5376 106.661 40.2481C106.458 40.9586 106.082 41.5514 105.527 42.0361C104.971 42.5207 104.285 42.8736 103.466 43.0948C102.638 43.3206 101.866 43.3677 101.141 43.2312C100.417 43.0995 99.791 42.7748 99.2593 42.2666C98.7323 41.7585 98.3464 41.0668 98.1065 40.1963L96.5349 34.4512L98.8217 33.8254L100.436 39.7352C100.553 40.1728 100.751 40.5069 101.024 40.7468C101.297 40.9821 101.602 41.128 101.941 41.1844C102.28 41.2409 102.605 41.2221 102.925 41.1374C103.226 41.0574 103.508 40.9021 103.772 40.681C104.035 40.4551 104.228 40.1728 104.35 39.8293C104.473 39.4858 104.473 39.1 104.355 38.6718L102.741 32.762L102.746 32.7573ZM86.2068 38.5212L94.1493 35.2699L94.921 37.152L92.046 38.3283L95.0386 45.645L92.8459 46.5437L89.8534 39.227L86.9785 40.4033L86.2068 38.5212ZM136.784 30.7057L134.431 30.3905L133.109 40.2386L140.27 41.1985L140.543 39.1846L135.73 38.54L136.784 30.7057ZM148.081 32.8233C149.159 33.0962 150.001 33.5479 150.617 34.169C151.229 34.7901 151.62 35.51 151.78 36.324C151.939 37.138 151.911 37.9849 151.685 38.8695C151.464 39.7447 151.078 40.5023 150.537 41.1422C149.996 41.7821 149.305 42.2291 148.472 42.4785C147.634 42.7326 146.688 42.7232 145.63 42.455L141.706 41.4527L144.157 31.821L148.081 32.8233ZM146.171 40.4929C146.698 40.6293 147.187 40.6105 147.634 40.4411C148.081 40.2717 148.453 39.9941 148.749 39.613C149.046 39.2318 149.257 38.7848 149.389 38.2814C149.516 37.7779 149.545 37.2886 149.465 36.8086C149.389 36.3287 149.192 35.9052 148.881 35.5476C148.571 35.1853 148.152 34.9406 147.62 34.8042L145.95 34.3807L144.5 40.0694L146.171 40.4929ZM162.06 38.0225C161.515 37.3167 160.748 36.7615 159.75 36.3662C158.753 35.9663 157.812 35.8393 156.932 35.9804C156.052 36.1216 155.28 36.4886 154.626 37.0767C153.972 37.6649 153.464 38.413 153.106 39.3118C152.749 40.2105 152.603 41.0998 152.673 41.9796C152.744 42.8595 153.05 43.6547 153.596 44.3605C154.142 45.0663 154.908 45.6168 155.906 46.0168C156.904 46.4167 157.845 46.5438 158.724 46.4026C159.604 46.2614 160.376 45.8944 161.03 45.3063C161.684 44.7181 162.192 43.97 162.55 43.0713C162.907 42.1726 163.053 41.2833 162.983 40.4034C162.912 39.5235 162.606 38.7283 162.06 38.0225ZM158.169 44.2852C157.689 44.3887 157.181 44.337 156.659 44.13C156.132 43.9229 155.732 43.6124 155.454 43.203C155.177 42.7937 155.026 42.3231 155.007 41.8008C154.988 41.2739 155.087 40.7375 155.308 40.1869C155.525 39.6364 155.821 39.1753 156.198 38.8083C156.569 38.4413 156.998 38.206 157.482 38.0978C157.962 37.9943 158.466 38.046 158.993 38.2531C159.52 38.4601 159.92 38.7706 160.197 39.18C160.475 39.5894 160.625 40.0599 160.644 40.5822C160.663 41.1092 160.564 41.6456 160.343 42.1961C160.127 42.7466 159.825 43.2077 159.454 43.5747C159.082 43.9417 158.649 44.1817 158.169 44.2852Z" fill="url(#paint3_linear_3301_10912)"/>
<defs>
<linearGradient id="paint0_linear_3301_10912" x1="52.8607" y1="21.7662" x2="208.955" y2="215.796" gradientUnits="userSpaceOnUse">
<stop stop-color="#CBA23E"/>
<stop offset="0.155" stop-color="#FDF4E3"/>
<stop offset="0.285" stop-color="#CBA23E"/>
<stop offset="0.415" stop-color="#A1832A"/>
<stop offset="0.585" stop-color="#CBA23E"/>
<stop offset="0.755" stop-color="#FDF4E3"/>
<stop offset="0.95" stop-color="#CBA23E"/>
</linearGradient>
<linearGradient id="paint1_linear_3301_10912" x1="238.142" y1="232.88" x2="11.8581" y2="16.6007" gradientUnits="userSpaceOnUse">
<stop stop-color="#0D4BEF"/>
<stop offset="0.495" stop-color="#1A26E7"/>
<stop offset="1" stop-color="#7D0BF4"/>
</linearGradient>
<linearGradient id="paint2_linear_3301_10912" x1="134.755" y1="221.431" x2="107.91" y2="184.155" gradientUnits="userSpaceOnUse">
<stop stop-color="#EAD5A1"/>
<stop offset="1" stop-color="#F9EFD9"/>
</linearGradient>
<linearGradient id="paint3_linear_3301_10912" x1="146.21" y1="45.8786" x2="143.778" y2="24.971" gradientUnits="userSpaceOnUse">
<stop stop-color="#EAD5A1"/>
<stop offset="1" stop-color="#F9EFD9"/>
</linearGradient>
</defs>
</svg>
